<?xml version="1.0" encoding="UTF-8"?>
<svg version="1.1" xmlns="http://www.w3.org/2000/svg" width="4500" height="2954">
<path d="M0 0 C1485 0 2970 0 4500 0 C4500 974.82 4500 1949.64 4500 2954 C3015 2954 1530 2954 0 2954 C0 1979.18 0 1004.36 0 0 Z " fill="#FEFEFE" transform="translate(0,0)"/>
<path d="M0 0 C1.88696929 0.93299181 3.77271472 1.86845907 5.65795898 2.80493164 C6.70821762 3.32559708 7.75847626 3.84626251 8.84056091 4.38270569 C13.6998726 6.87015265 18.37348032 9.64595742 23.0625 12.4375 C31.80419724 17.59201087 40.61291852 22.60058879 49.5 27.5 C58.06600916 32.22596889 66.56771085 37.03933575 75 42 C84.63318477 47.6656365 94.36629386 53.13046915 104.14672852 58.53735352 C113.5335183 63.72917097 122.85647922 69.0244858 132.15771484 74.36767578 C137.68537066 77.54220823 143.21695856 80.70986656 148.75 83.875 C149.34232422 84.21389252 149.93464844 84.55278503 150.54492188 84.90194702 C160.02103276 90.32135571 169.53327014 95.67359241 179.06420898 100.99609375 C189.08275754 106.59481163 199.0442014 112.29067843 209 118 C213.58231646 120.62677914 218.16547084 123.25208512 222.75 125.875 C223.34214294 126.21380188 223.93428589 126.55260376 224.54437256 126.90167236 C234.01696102 132.31904342 243.52523869 137.67004687 253.05322266 142.98950195 C260.45747099 147.12640566 267.83071986 151.31456451 275.18920898 155.53222656 C281.61252589 159.21246174 288.05266653 162.86201971 294.5 166.5 C301.73940154 170.5863984 308.97099245 174.68579493 316.1875 178.8125 C317.45255371 179.53590576 317.45255371 179.53590576 318.74316406 180.27392578 C322.57582212 182.4665594 326.40768397 184.66057693 330.23876953 186.85595703 C343.81211083 194.63346029 357.40574204 202.36859663 371.06420898 209.99609375 C381.08275754 215.59481163 391.0442014 221.29067843 401 227 C405.58231657 229.6267792 410.1655565 232.2519353 414.75 234.875 C415.34313995 235.21446655 415.93627991 235.55393311 416.5473938 235.90368652 C424.92081525 240.69401956 433.3230694 245.42922867 441.75 250.125 C450.99989404 255.27944289 460.16057342 260.57112387 469.2890625 265.93725586 C476.70253166 270.28131681 484.19281733 274.46576435 491.7590332 278.5378418 C492.5243335 278.95203369 493.28963379 279.36622559 494.078125 279.79296875 C495.07440918 280.32700317 495.07440918 280.32700317 496.09082031 280.87182617 C496.72084961 281.24412354 497.35087891 281.6164209 498 282 C499.03383808 282.48719779 499.03383808 282.48719779 500.08856177 282.98423797 C503.22153195 286.28820157 502.54238169 289.99648644 502.49219131 294.38036633 C502.49680669 295.35801947 502.50142207 296.33567262 502.50617731 297.34295163 C502.51684693 300.65087357 502.49875292 303.95803183 502.48101807 307.26591492 C502.48276079 309.64851576 502.48626019 312.03111586 502.49137473 314.41371185 C502.49847725 319.61028156 502.49307372 324.80668639 502.4768219 330.00322914 C502.45272293 337.73032362 502.45147482 345.45730232 502.45498985 353.18442753 C502.46025088 366.18139919 502.44685933 379.17828964 502.42292023 392.17523766 C502.39927043 405.04804574 502.38386015 417.92082002 502.37950897 430.79364967 C502.37923401 431.59336555 502.37895906 432.39308142 502.37867576 433.21703111 C502.37732247 437.27821012 502.37611692 441.33938915 502.37496826 445.40056822 C502.36656155 474.18284001 502.33959803 502.96506758 502.30175781 531.74731445 C502.26503376 559.71280685 502.23669261 587.67828716 502.21972656 615.64379883 C502.21920046 616.50547451 502.21867435 617.36715019 502.21813231 618.25493726 C502.21285833 626.90806007 502.20775506 635.56118297 502.20277687 644.21430595 C502.1926314 661.84248167 502.18134639 679.4706566 502.16937256 697.09883118 C502.16854882 698.31466403 502.16854882 698.31466403 502.16770844 699.55505917 C502.13089172 753.70339135 502.06742622 807.85169835 502 862 C498.7755274 860.73239468 495.76602495 859.40006769 492.76171875 857.671875 C491.95412109 857.20910156 491.14652344 856.74632812 490.31445312 856.26953125 C489.44755859 855.76808594 488.58066406 855.26664063 487.6875 854.75 C486.31174805 853.95916016 486.31174805 853.95916016 484.90820312 853.15234375 C476.90054484 848.5410557 468.92245029 843.87893887 460.94604492 839.21386719 C453.63368279 834.94073677 446.28987091 830.72608702 438.92919922 826.53686523 C432.3004939 822.75821613 425.70913073 818.91820084 419.125 815.0625 C411.35181962 810.5109796 403.54330838 806.0322659 395.6875 801.625 C386.52184728 796.48087361 377.47193081 791.15638565 368.44546509 785.77368164 C360.7692947 781.19876274 353.04946472 776.73736181 345.21484375 772.44018555 C339.60756379 769.35942652 334.09106024 766.14236427 328.58764648 762.88037109 C323.0688335 759.61440536 317.5109953 756.42162881 311.9375 753.25 C304.40924176 748.96411041 296.91359845 744.62620766 289.4375 740.25 C280.6959861 735.13569974 271.92277445 730.07925106 263.125 725.0625 C249.72367264 717.4204074 236.35555757 709.72185046 223 702 C221.33203977 701.03644359 219.66407161 700.07290089 217.99609375 699.109375 C210.38802976 694.71176949 202.79099386 690.29585739 195.20410156 685.86181641 C185.85143492 680.3964538 176.47935569 674.96908351 167.06811523 669.60522461 C150.67194011 660.25772873 134.34250899 650.79507799 118.04638672 641.27441406 C102.06862591 631.94552267 86.03151095 622.71946678 69.9609375 613.55151367 C59.7535025 607.72464045 49.57849398 601.84163595 39.40087891 595.96289062 C35.90792932 593.94685942 32.41319623 591.93395273 28.91796875 589.921875 C27.74762377 589.24783086 26.57729483 588.57375889 25.40698242 587.8996582 C23.20570967 586.63189546 21.00407475 585.36476125 18.80200195 584.09838867 C17.79484131 583.51806885 16.78768066 582.93774902 15.75 582.33984375 C14.87859375 581.83831787 14.0071875 581.33679199 13.109375 580.82006836 C12.08328125 580.2194458 11.0571875 579.61882324 10 579 C9.19187194 578.76896352 8.38374387 578.53792703 7.55112708 578.29988945 C4.09813842 576.99518682 2.37744305 575.86076742 0 573 C-2.08262377 565.85895042 -1.30217886 557.87696821 -1.20254517 550.525177 C-1.20690437 548.15647635 -1.21565732 545.78778037 -1.22843683 543.41911018 C-1.24616327 538.26188861 -1.23275379 533.10570732 -1.19205475 527.94865608 C-1.13170617 520.28047516 -1.12869603 512.61302189 -1.13747464 504.94464679 C-1.15061511 492.04566273 -1.11719507 479.14719085 -1.05730057 466.24835587 C-0.99814387 453.47569369 -0.95964399 440.7032448 -0.94877243 427.93044662 C-0.94808503 427.13648236 -0.94739764 426.34251809 -0.94668941 425.5244943 C-0.94330611 421.49240251 -0.94029226 417.46031053 -0.93742065 413.42821835 C-0.91641268 384.86378419 -0.84902866 356.29962872 -0.75439453 327.73535156 C-0.662561 299.98439009 -0.5917197 272.23350485 -0.54931641 244.48242188 C-0.54800114 243.62711699 -0.54668588 242.77181211 -0.54533076 241.8905889 C-0.53214564 233.30131903 -0.51938749 224.71204857 -0.50694217 216.12277759 C-0.48157957 198.62521313 -0.45336705 181.12765365 -0.4234314 163.63009644 C-0.4220585 162.82557502 -0.4206856 162.02105361 -0.41927109 161.19215276 C-0.3272538 107.46131814 -0.16859267 53.73064221 0 0 Z " fill="#017DC3" transform="translate(1707,824)"/>
<path d="M0 0 C0.22250959 54.51501223 0.42948139 109.03006747 0.55046082 163.54541016 C0.55225556 164.35208531 0.5540503 165.15876047 0.55589943 165.98988032 C0.59480605 183.52055401 0.63081858 201.05123252 0.66384928 218.58191824 C0.68006484 227.17879943 0.69692002 235.77567931 0.71411133 244.37255859 C0.71666113 245.65580678 0.71666113 245.65580678 0.71926244 246.96497917 C0.77467307 274.70078189 0.87232937 302.43624061 0.99186387 330.17183487 C1.11446494 358.67068883 1.19450534 387.16935238 1.22089487 415.6684656 C1.22464096 419.6925416 1.22887424 423.71661695 1.23340416 427.74069214 C1.23428066 428.53269798 1.23515716 429.32470382 1.23606022 430.14070984 C1.25143058 442.89671656 1.31174564 455.65213498 1.38881644 468.40790167 C1.46531755 481.22781544 1.49459266 494.04714527 1.47551791 506.86727935 C1.46561974 514.48715964 1.49207228 522.10490498 1.57036806 529.72440019 C1.62481456 535.41083055 1.61152641 541.09548237 1.57168563 546.78195941 C1.56617786 549.08497103 1.58280289 551.38816094 1.62348137 553.69081986 C1.90251143 570.45714513 1.90251143 570.45714513 -1.24588515 574.66522264 C-4.71527704 577.78707451 -8.66573516 579.33045686 -13 581 C-15.17860122 582.2189047 -17.34162781 583.46650912 -19.48046875 584.75390625 C-21.71499702 586.02545846 -23.95071386 587.29492382 -26.1875 588.5625 C-28.65817597 589.96765477 -31.12788106 591.37451273 -33.59765625 592.78125 C-34.21775574 593.13417618 -34.83785522 593.48710236 -35.47674561 593.85072327 C-41.70638053 597.39784038 -47.91753421 600.97674171 -54.125 604.5625 C-55.18726807 605.17609375 -56.24953613 605.7896875 -57.34399414 606.421875 C-59.48720923 607.66003976 -61.63035717 608.89832075 -63.7734375 610.13671875 C-67.03524007 612.0203505 -70.29861844 613.90122321 -73.5625 615.78125 C-84.01713032 621.80439786 -94.46042007 627.84533368 -104.875 633.9375 C-114.68628636 639.67455308 -124.54438068 645.3274104 -134.41723633 650.95751953 C-150.57060767 660.17031651 -166.6651991 669.48509857 -182.75585938 678.80688477 C-192.70858037 684.57148557 -202.67373904 690.31454917 -212.63720703 696.06054688 C-218.09181707 699.20643203 -223.54588673 702.35325369 -229 705.5 C-231.16666396 706.7500047 -233.33333063 708.00000469 -235.5 709.25 C-237.10875 710.178125 -237.10875 710.178125 -238.75 711.125 C-248.5 716.75 -248.5 716.75 -251.75048828 718.62524414 C-253.91557071 719.87435518 -256.08060982 721.12354129 -258.24560547 722.37280273 C-263.68615706 725.51202309 -269.12747216 728.64990563 -274.5703125 731.78515625 C-285.02206199 737.80747329 -295.46299548 743.84669337 -305.875 749.9375 C-315.14499777 755.35921178 -324.45831752 760.70204915 -333.78845215 766.01922607 C-342.9128284 771.22045129 -352.00132774 776.48027878 -361.06689453 781.78344727 C-371.59084625 787.93766742 -382.15380137 794.02369996 -392.71777344 800.10888672 C-398.14659942 803.23680148 -403.57319281 806.36858448 -409 809.5 C-411.16665583 810.75001879 -413.3333225 812.00001878 -415.5 813.25 C-416.5725 813.86875 -417.645 814.4875 -418.75 815.125 C-422 817 -425.25 818.875 -428.5 820.75 C-429.57403076 821.36963623 -430.64806152 821.98927246 -431.75463867 822.62768555 C-433.90583224 823.86875254 -436.05703655 825.10980093 -438.20825195 826.35083008 C-443.25962999 829.26498344 -448.3109031 832.17931818 -453.36178589 835.09432983 C-455.15066918 836.12673478 -456.93958717 837.15907956 -458.72851562 838.19140625 C-460.97337636 839.48685948 -463.2181719 840.7824257 -465.46289062 842.078125 C-467.44501637 843.2219008 -469.42786907 844.36441823 -471.41162109 845.50537109 C-473.01795749 846.43293112 -474.62060459 847.36695074 -476.21728516 848.31103516 C-480.79076325 851 -480.79076325 851 -483 851 C-483.25675712 797.07116583 -483.49556875 743.14227613 -483.63514709 689.21299744 C-483.63721795 688.41491876 -483.63928881 687.61684009 -483.64142242 686.79457722 C-483.68631529 669.45047261 -483.72786813 652.10636151 -483.76597994 634.76224071 C-483.78469011 626.25677557 -483.8041384 617.75131219 -483.82397461 609.24584961 C-483.825936 608.39945063 -483.82789738 607.55305166 -483.8299182 606.68100423 C-483.8938468 579.24313838 -484.00652192 551.80573567 -484.14445831 524.36815044 C-484.2859404 496.17408651 -484.37827979 467.98027892 -484.40872485 439.78586599 C-484.41304722 435.80427436 -484.41793177 431.8226836 -484.42315865 427.84109306 C-484.42416999 427.05745355 -484.42518134 426.27381403 -484.42622333 425.46642786 C-484.44395433 412.84813824 -484.5135372 400.23064087 -484.60248051 387.61267443 C-484.69077895 374.92936679 -484.72452326 362.24684504 -484.70252066 349.56324077 C-484.69211023 342.68954686 -484.70588435 335.81797636 -484.78808212 328.94470787 C-484.86096764 322.65341055 -484.86485231 316.36600758 -484.81348342 310.07453268 C-484.80713353 307.79705497 -484.82627294 305.51933644 -484.87324774 303.24233437 C-485.19540292 286.66467536 -485.19540292 286.66467536 -481.55531318 282.24650805 C-478.04560376 279.29433328 -474.19047657 277.4701848 -469.94413824 275.81319766 C-466.7523549 274.47813275 -463.91277476 272.66531565 -460.96484375 270.859375 C-459.80722521 270.17841007 -458.64821997 269.49979217 -457.48730469 268.82446289 C-453.76508557 266.64932911 -450.04436904 264.47163885 -446.32421875 262.29296875 C-445.69983917 261.92735336 -445.07545959 261.56173798 -444.43215942 261.18504333 C-437.79233005 257.29537179 -431.16758489 253.38031306 -424.54467773 249.46191406 C-419.20090474 246.3003185 -413.85319869 243.14560879 -408.5 240 C-401.99405433 236.17670076 -395.49583591 232.34044918 -389 228.5 C-380.35485013 223.38910109 -371.70284035 218.2900623 -363.04443359 213.20166016 C-358.81279909 210.71442526 -354.5823491 208.22517574 -350.35180664 205.73608398 C-346.9358287 203.7263873 -343.51939921 201.71747162 -340.1015625 199.7109375 C-332.52471658 195.26093938 -324.95972938 190.791516 -317.40332031 186.30688477 C-316.24804953 185.62125204 -315.09277606 184.93562384 -313.9375 184.25 C-313.35963745 183.90701874 -312.7817749 183.56403748 -312.18640137 183.21066284 C-304.10441375 178.41515748 -296.00050563 173.65898667 -287.875 168.9375 C-278.53855201 163.511367 -269.27125778 157.97682658 -260.02099609 152.40527344 C-251.45237757 147.25196738 -242.81294371 142.23090245 -234.1484375 137.24121094 C-225.65149425 132.33229509 -217.21619819 127.31641945 -208.77734375 122.30859375 C-207.07868414 121.30062228 -205.38002405 120.29265161 -203.68133545 119.284729 C-202.51613816 118.593343 -201.35097719 117.90189578 -200.18585205 117.21038818 C-192.10405108 112.41496737 -184.00032971 107.65888444 -175.875 102.9375 C-166.53855201 97.511367 -157.27125778 91.97682658 -148.02099609 86.40527344 C-140.19297807 81.69737652 -132.31050555 77.0931213 -124.39453125 72.53515625 C-112.58967122 65.73731918 -100.89028286 58.75564501 -89.1640625 51.82348633 C-81.4639037 47.27198905 -73.75607666 42.73366497 -66.04443359 38.20166016 C-62.52904825 36.13541623 -59.01457004 34.06763031 -55.5 32 C-51.30901754 29.53443458 -47.11789752 27.069106 -42.92578125 24.60546875 C-41.55466148 23.79952344 -40.18356791 22.99353354 -38.8125 22.1875 C-38.1313916 21.78708496 -37.4502832 21.38666992 -36.74853516 20.97412109 C-32.59092955 18.52841461 -28.43686807 16.076793 -24.28515625 13.62109375 C-23.30506592 13.04141846 -22.32497559 12.46174316 -21.31518555 11.86450195 C-19.4009988 10.73201166 -17.48708482 9.59906017 -15.57348633 8.46557617 C-1.26570936 0 -1.26570936 0 0 0 Z " fill="#27AAE1" transform="translate(2786,824)"/>
<path d="M0 0 C0.94195447 -0.00851013 1.88390894 -0.01702026 2.85440749 -0.02578828 C6.02293962 -0.04948116 9.19078592 -0.04465848 12.35939407 -0.03999233 C14.64926639 -0.05104251 16.93913097 -0.06380768 19.22898507 -0.07814401 C25.53138541 -0.11238706 31.83361101 -0.1214601 38.13609338 -0.12632573 C44.23243066 -0.13287934 50.32868352 -0.16190846 56.42496133 -0.1881049 C72.75952373 -0.25710998 89.09408186 -0.28530843 105.42876208 -0.30848075 C113.15967921 -0.31969969 120.8905842 -0.33572985 128.62149153 -0.35225141 C155.09585429 -0.40865242 181.57021263 -0.45580053 208.04463196 -0.47357941 C209.70647097 -0.47471905 211.36830999 -0.4758603 213.030149 -0.47700312 C213.854257 -0.47756696 214.678365 -0.4781308 215.52744597 -0.47871172 C219.70265021 -0.48156957 223.87785442 -0.48445271 228.05305862 -0.48736477 C228.88163502 -0.48793309 229.71021142 -0.48850141 230.5638962 -0.48908696 C257.41372061 -0.50786078 284.26304996 -0.57901611 311.11267677 -0.6814918 C339.51253912 -0.78968562 367.91211663 -0.85045545 396.31219029 -0.8573274 C399.43265367 -0.85825926 402.55311691 -0.8593851 405.67358017 -0.86065388 C406.82606347 -0.86108962 406.82606347 -0.86108962 408.00182926 -0.86153417 C420.34450581 -0.86730831 432.68665323 -0.91596542 445.02914828 -0.98015689 C457.44752692 -1.04365297 469.86524393 -1.05862293 482.28374532 -1.02506632 C489.00654467 -1.00816681 495.727378 -1.01337078 502.45006371 -1.07499981 C508.61368886 -1.13099433 514.77426206 -1.126147 520.93789616 -1.07433038 C523.15878096 -1.06610625 525.37988289 -1.07953667 527.60045514 -1.11769212 C543.01851887 -1.36580061 551.94079717 1.70146782 563.61566857 11.85187287 C566.94649779 14.64772607 570.53072184 17.06970748 574.11311722 19.52850437 C579.94504074 23.61999374 585.72592961 27.77703119 591.48811722 31.96600437 C597.68840375 36.46954764 603.96026839 40.84957447 610.30061722 45.15350437 C616.64682942 49.46178886 622.89243405 53.87187171 629.05574417 58.43743992 C635.77563958 63.40964055 642.61519096 68.20845954 649.45589066 73.01239109 C653.01241104 75.51193745 656.56251495 78.02056198 660.11311722 80.52850437 C664.34908445 83.52008632 668.58598339 86.51029271 672.82796097 89.49334812 C681.14649225 95.34766353 689.42396946 101.25279439 697.6382637 107.25286961 C700.58861786 109.39794116 703.46849511 111.44476593 706.62874222 113.27459812 C707.28358597 113.68838718 707.93842972 114.10217625 708.61311722 114.52850437 C708.61311722 115.18850437 708.61311722 115.84850437 708.61311722 116.52850437 C707.78296097 116.98096531 706.95280472 117.43342625 706.09749222 117.89959812 C695.85262895 123.54615891 685.8549114 129.58219451 675.86995316 135.67279148 C674.63592112 136.42550563 673.40187147 137.17819089 672.16780472 137.93084812 C671.54808792 138.30886066 670.92837112 138.68687321 670.28987503 139.07634068 C663.41921374 143.26309439 656.5166767 147.39630959 649.61311722 151.52850437 C640.54129151 156.96002098 631.48717023 162.4188539 622.45686722 167.91912937 C611.20825131 174.77055906 599.90695697 181.5275665 588.57265091 188.23623753 C579.21663839 193.77536583 569.89639234 199.36835891 560.61311722 205.02850437 C549.97982877 211.51177224 539.28944992 217.89327779 528.57210159 224.23651218 C519.21627691 229.77555508 509.8962171 235.36846576 500.61311722 241.02850437 C489.97982877 247.51177224 479.28944992 253.89327779 468.57210159 260.23651218 C459.21627691 265.77555508 449.8962171 271.36846576 440.61311722 277.02850437 C430.65490865 283.1001664 420.64986339 289.0875987 410.61311722 295.02850437 C400.49735956 301.01751545 390.40670872 307.04415441 380.36311722 313.15350437 C379.79137772 313.50124912 379.21963821 313.84899387 378.63057327 314.20727634 C374.62333784 316.64536245 370.61799481 319.08654771 366.61311722 321.52850437 C362.0311147 324.32236044 357.44822168 327.1147413 352.86311722 329.90350437 C352.29169998 330.25108799 351.72028275 330.59867161 351.13154984 330.95678806 C340.9962709 337.11774788 330.80369763 343.17952998 320.59737015 349.22186375 C310.73596668 355.06139674 300.90717242 360.95167174 291.11311722 366.90350437 C290.53175003 367.25662693 289.95038284 367.60974949 289.35139847 367.97357273 C287.69853548 368.97800849 286.04643819 369.98370395 284.39436722 370.98944187 C283.39405472 371.59497898 282.39374222 372.20051609 281.36311722 372.82440281 C279.63256864 373.89677755 277.92059305 375.00034341 276.23811722 376.14666843 C275.54717972 376.61556492 274.85624222 377.0844614 274.14436722 377.56756687 C273.572668 377.97442722 273.00096878 378.38128757 272.41194534 378.80047703 C269.8038021 379.85605292 268.27510869 379.34525462 265.61311722 378.52850437 C263.25838089 377.33953953 263.25838089 377.33953953 260.78108597 375.81756687 C259.83410843 375.2419199 258.88713089 374.66627293 257.91145706 374.07318211 C256.88487991 373.43968845 255.85830276 372.8061948 254.80061722 372.15350437 C253.13280351 371.13794219 251.46496425 370.12242097 249.79622269 369.10838413 C248.61017155 368.38746219 247.4246363 367.66569093 246.23958206 366.94313145 C239.70823772 362.96439421 233.12528361 359.07376073 226.54234695 355.18121433 C213.8173166 347.65353456 201.1535807 340.03186917 188.54036331 332.31805515 C183.08950112 328.98570987 177.63432032 325.66048599 172.17561722 322.34100437 C171.59533768 321.98810337 171.01505814 321.63520237 170.41719437 321.2716074 C160.17887724 315.04945888 149.88450859 308.92442413 139.57457352 302.82186985 C129.0732278 296.60468183 118.62603243 290.30470896 108.20662308 283.95135593 C99.23815336 278.48908859 90.21375677 273.12453101 81.17561722 267.77850437 C71.61399698 262.12252478 62.10601893 256.40065053 52.68587112 250.51092625 C44.19473675 245.22402474 35.58417244 240.14236361 26.97502518 235.05102634 C17.41884381 229.3988014 7.90222553 223.68807847 -1.57438278 217.90350437 C-10.9551979 212.1789408 -20.39355631 206.56440015 -29.88688278 201.02850437 C-39.45941949 195.44513905 -48.98353795 189.79105661 -58.44938278 184.02850437 C-59.02643967 183.6772147 -59.60349655 183.32592503 -60.19804001 182.96399021 C-63.68574169 180.83978679 -67.17160356 178.71257779 -70.65696335 176.58453465 C-75.81417107 173.43631434 -80.97433265 170.29295575 -86.13688278 167.15350437 C-86.70802811 166.80610203 -87.27917343 166.45869968 -87.86762619 166.10077 C-98.003807 159.93923057 -108.19698002 153.8763253 -118.40464401 147.83413792 C-131.48134478 140.09205955 -144.47590917 132.21995169 -157.45231247 124.31121922 C-161.7528837 121.69867586 -166.06773589 119.1101955 -170.38688278 116.52850437 C-168.99030928 112.33878386 -165.99178088 110.97623819 -162.44938278 108.65350437 C-160.97667277 107.66593995 -159.50536928 106.67627553 -158.03532028 105.68475437 C-157.26800583 105.16784031 -156.50069138 104.65092625 -155.71012497 104.11834812 C-151.9424126 101.54002288 -148.2610682 98.84580835 -144.57438278 96.15350437 C-138.35510217 91.6257388 -132.0651087 87.22280625 -125.69938278 82.90350437 C-119.3530774 78.59536284 -113.10756027 74.18513283 -106.94425583 69.61956882 C-99.51806216 64.12476234 -91.94672637 58.83702688 -84.38688278 53.52850437 C-81.57317031 51.55105554 -78.7606601 49.57191367 -75.94938278 47.59100437 C-75.24942184 47.09793797 -74.54946091 46.60487156 -73.82828903 46.09686375 C-68.69183536 42.47030167 -63.59826763 38.78732475 -58.51188278 35.09100437 C-51.53234427 30.02166333 -44.44875452 25.12540827 -37.31046677 20.2828989 C-31.54011269 16.35458025 -25.87825007 12.30013661 -20.28068161 8.12957859 C-18.65597674 6.92035436 -17.02162625 5.72412261 -15.38688278 4.52850437 C-14.09331364 3.48246606 -14.09331364 3.48246606 -12.77361178 2.41529566 C-8.34238361 -0.05339986 -4.98621683 -0.03880608 0 0 Z " fill="#4D4D4D" transform="translate(1985.3868827819824,660.4714956283569)"/>
<path d="M0 0 C13.2 0 26.4 0 40 0 C41.74584147 4.65557726 43.41994438 9.14545986 44.8671875 13.87109375 C45.35529907 15.46002441 45.35529907 15.46002441 45.85327148 17.08105469 C46.19044189 18.18868164 46.5276123 19.29630859 46.875 20.4375 C47.23086182 21.60055664 47.58672363 22.76361328 47.95336914 23.96191406 C50.00565116 30.68559863 52.02936974 37.416405 53.99560547 44.16577148 C56.12204807 51.45630703 58.31371617 58.72724632 60.5 66 C62.9151479 74.03600308 65.32993144 82.0718703 67.6875 90.125 C69.45822227 96.17300199 71.25310743 102.21344845 73.0625 108.25 C73.31491455 109.09385254 73.5673291 109.93770508 73.82739258 110.80712891 C74.95050444 114.55132463 76.08405745 118.29065729 77.26953125 122.015625 C77.81673828 123.74039062 77.81673828 123.74039062 78.375 125.5 C78.69210937 126.4796875 79.00921875 127.459375 79.3359375 128.46875 C80 131 80 131 80 135 C80.66 135 81.32 135 82 135 C82.13535156 134.2678125 82.27070312 133.535625 82.41015625 132.78125 C84.18835706 123.83700641 86.63848454 115.18669752 89.23828125 106.45214844 C91.32231994 99.41742786 93.24830507 92.35880492 95.0625 85.25 C96.82950433 78.34314646 98.70850009 71.49915491 100.8125 64.6875 C104.11377889 53.9792625 106.92487932 43.14394806 109.75317383 32.3034668 C115.91171354 8.72071616 115.91171354 8.72071616 119 1 C133.52 1 148.04 1 163 1 C165.54679241 9.27707533 168.05115476 17.53685413 170.375 25.875 C170.82552734 27.48556274 170.82552734 27.48556274 171.28515625 29.12866211 C173.26714214 36.25429861 175.15907505 43.39929084 177 50.5625 C179.27016861 59.38580288 181.74365237 68.13471263 184.32202148 76.87255859 C186.46179116 84.12814672 188.53237615 91.40049478 190.5625 98.6875 C192.81832112 106.77513499 195.08007796 114.86085727 197.375 122.9375 C197.62580322 123.82590576 197.87660645 124.71431152 198.13500977 125.62963867 C198.36631592 126.44150635 198.59762207 127.25337402 198.8359375 128.08984375 C199.03751465 128.80003662 199.2390918 129.51022949 199.44677734 130.24194336 C199.97449332 132.08074743 199.97449332 132.08074743 201 134 C201.18062988 133.40276123 201.36125977 132.80552246 201.54736328 132.19018555 C202.40540821 129.35560187 203.26494173 126.52147347 204.125 123.6875 C204.44122314 122.64529297 204.75744629 121.60308594 205.08325195 120.52929688 C207.06920438 114.00324343 209.10665484 107.49631356 211.1875 101 C213.29167366 94.40973626 215.14798368 87.79109992 216.88671875 81.09375 C218.47791236 75.11670784 220.33793835 69.21838638 222.15429688 63.30688477 C224.46481552 55.78128231 226.71281961 48.23888759 228.9375 40.6875 C231.72905374 31.23716281 234.55722116 21.79869825 237.4375 12.375 C237.95074829 10.68443481 237.95074829 10.68443481 238.47436523 8.9597168 C238.79091064 7.92886963 239.10745605 6.89802246 239.43359375 5.8359375 C239.71259521 4.92376465 239.99159668 4.0115918 240.27905273 3.07177734 C241 1 241 1 242 0 C244.95705321 -0.08868299 247.89065056 -0.11520296 250.84765625 -0.09765625 C252.17729652 -0.09553383 252.17729652 -0.09553383 253.53379822 -0.09336853 C256.37673254 -0.08775215 259.21958931 -0.07519691 262.0625 -0.0625 C263.98502491 -0.05748711 265.90755104 -0.05292384 267.83007812 -0.04882812 C272.55341549 -0.03777741 277.27669458 -0.02050183 282 0 C281.40432672 4.13676896 280.47225882 7.88049581 279.07421875 11.81640625 C278.68943359 12.91146484 278.30464844 14.00652344 277.90820312 15.13476562 C277.50537109 16.26591797 277.10253906 17.39707031 276.6875 18.5625 C273.94931347 26.28986989 271.32803913 34.02516366 268.94946289 41.87133789 C267.4714489 46.74167714 265.92518632 51.58973278 264.375 56.4375 C264.04016602 57.48518555 263.70533203 58.53287109 263.36035156 59.61230469 C260.1573944 69.58906369 256.84454262 79.52821727 253.50146484 89.45874023 C251.22791412 96.23100919 249.05505744 103.02281491 246.97363281 109.85644531 C245.4012883 114.93305211 243.69914525 119.96471808 242 125 C239.62465022 132.08324536 237.29000826 139.16832469 235.12890625 146.3203125 C233.43842629 151.83045826 231.6881489 157.32121909 229.9375 162.8125 C229.59654297 163.88749756 229.25558594 164.96249512 228.90429688 166.07006836 C228.57365234 167.10526611 228.24300781 168.14046387 227.90234375 169.20703125 C227.60835693 170.1297583 227.31437012 171.05248535 227.01147461 172.00317383 C225.76368553 175.70015933 224.37004207 179.34655449 223 183 C208.15 183 193.3 183 178 183 C176.989375 179.37 175.97875 175.74 174.9375 172 C170.27869387 155.3361884 165.46548622 138.72466378 160.375 122.1875 C158.04112211 114.59535938 155.8883555 106.98372541 153.91796875 99.28979492 C151.94854362 91.65425003 149.73330166 84.0948562 147.49804688 76.53344727 C146.65865887 73.69086461 145.82628474 70.84641861 145 68 C144.7102832 67.00226563 144.42056641 66.00453125 144.12207031 64.9765625 C143.84717773 64.00460937 143.57228516 63.03265625 143.2890625 62.03125 C143.0410791 61.16048828 142.7930957 60.28972656 142.53759766 59.39257812 C142 57 142 57 142 53 C141.34 53 140.68 53 140 53 C139.83890747 53.87072144 139.83890747 53.87072144 139.67456055 54.7590332 C138.35211118 61.65655418 136.65389501 68.41184173 134.8125 75.1875 C134.50642822 76.31953857 134.20035645 77.45157715 133.88500977 78.61791992 C131.33189761 87.96976159 128.54010182 97.23733487 125.68359375 106.5 C121.67032365 119.5402661 118.0712284 132.6915119 114.5625 145.875 C112.2233811 154.64833024 109.76045353 163.37336526 107.125 172.0625 C106.8266626 173.05040527 106.5283252 174.03831055 106.22094727 175.05615234 C105.80607056 176.40700928 105.80607056 176.40700928 105.3828125 177.78515625 C105.13934082 178.57801025 104.89586914 179.37086426 104.64501953 180.18774414 C104 182 104 182 103 183 C101.61839885 183.0927833 100.23211962 183.11747043 98.84741211 183.11352539 C97.96657455 183.11344986 97.085737 183.11337433 96.1782074 183.11329651 C95.22092239 183.10813522 94.26363739 183.10297394 93.27734375 183.09765625 C92.30213272 183.0962413 91.32692169 183.09482635 90.32215881 183.09336853 C87.19390857 183.08775133 84.06572877 183.07519593 80.9375 183.0625 C78.82226666 183.05748722 76.70703219 183.05292393 74.59179688 183.04882812 C69.39450704 183.03777631 64.19725855 183.02102146 59 183 C48.73422595 154.88944719 48.73422595 154.88944719 45.15380859 142.27441406 C42.72249731 133.75797856 39.82593611 125.39152511 37 117 C36.49024802 115.48344855 35.98064248 113.96684787 35.47119141 112.45019531 C35.22233185 111.70936707 34.97347229 110.96853882 34.71707153 110.20526123 C33.70877842 107.20218482 32.70169714 104.19870303 31.69506836 101.19506836 C31.18930147 99.68787326 30.68246224 98.18103759 30.17456055 96.67456055 C27.16571121 87.74628427 24.309467 78.79901007 21.69090271 69.74815369 C20.28984711 64.92319192 18.74195672 60.21120113 17 55.5 C14.73451376 49.26102075 12.78037982 42.98604733 10.97143555 36.60131836 C9.07169456 30.00640579 6.79268315 23.56079718 4.41040039 17.12573242 C2.31336286 11.33967175 1.23649365 6.18246827 0 0 Z " fill="#027EC3" transform="translate(1591,1866)"/>
<path d="M0 0 C18.81 0 37.62 0 57 0 C58.93251697 4.50920627 60.56913985 8.53743191 61.94604492 13.16821289 C62.28582367 14.29720001 62.62560242 15.42618713 62.97567749 16.58938599 C63.48271713 18.27763992 63.48271713 18.27763992 64 20 C64.63093254 22.02903289 65.26536956 24.05697986 65.90356445 26.08374023 C66.22102127 27.09286972 66.53847809 28.10199921 66.86555481 29.14170837 C67.3594294 30.70931664 67.3594294 30.70931664 67.86328125 32.30859375 C68.21835251 33.43660904 68.57342377 34.56462433 68.93925476 35.7268219 C69.68610553 38.09911421 70.43316305 40.47134144 71.18041992 42.84350586 C72.29988316 46.39744553 73.41854754 49.95163591 74.53710938 53.50585938 C78.71212102 66.76726022 82.90701664 80.02211926 87.12954712 93.26846313 C88.67012766 98.10290348 90.20791754 102.93823175 91.74609375 107.7734375 C92.3026407 109.52262761 92.85920018 111.27181373 93.41577148 113.02099609 C96.27718099 122.0139974 99.13859049 131.0069987 102 140 C109.54174012 118.05460865 117.00353445 96.0839992 124.33203125 74.06640625 C124.67961361 73.02221905 125.02719597 71.97803185 125.38531113 70.90220261 C127.86322133 63.45635951 130.33811849 56.00951634 132.8125 48.5625 C135.33361123 40.97540466 137.85579851 33.38866986 140.38043785 25.80274773 C141.3771614 22.80612819 142.37207644 19.80891231 143.36689758 16.81166077 C143.96822573 15.00405029 144.56963595 13.19646711 145.17114258 11.38891602 C145.44477631 10.56284851 145.71841003 9.73678101 146.00033569 8.88568115 C147.8861573 3.22768539 147.8861573 3.22768539 149 1 C168.14 1 187.28 1 207 1 C207 61.06 207 121.12 207 183 C194.79 183 182.58 183 170 183 C169.67 138.78 169.34 94.56 169 49 C165.535 59.395 165.535 59.395 162 70 C160.67668931 73.83760101 159.34882523 77.67158684 158 81.5 C155.05151441 89.91155867 152.18892524 98.34728981 149.43359375 106.82421875 C148.14185824 110.75669435 146.7726144 114.61914281 145.19311523 118.44580078 C142.6517737 124.76071659 140.46481167 131.18714221 138.26953125 137.62890625 C137.82954439 138.91269731 137.38924628 140.19638174 136.94865417 141.47996521 C135.33103975 146.19460543 133.71863378 150.91102231 132.10675049 155.62762451 C130.73471621 159.6419722 129.36038964 163.65551935 127.98276329 167.66795158 C127.3395173 169.54456635 126.69974423 171.42237037 126.06001282 173.30018616 C125.67258408 174.42903732 125.28515533 175.55788849 124.88598633 176.72094727 C124.54497391 177.71892838 124.20396149 178.71690948 123.85261536 179.74513245 C123 182 123 182 122 183 C119.04294679 183.08868299 116.10934944 183.11520296 113.15234375 183.09765625 C111.82270348 183.09553383 111.82270348 183.09553383 110.46620178 183.09336853 C107.62326746 183.08775215 104.78041069 183.07519691 101.9375 183.0625 C100.01497509 183.05748711 98.09244896 183.05292384 96.16992188 183.04882812 C91.44658451 183.03777741 86.72330542 183.02050183 82 183 C75.9335625 166.42651487 70.2083711 149.7811284 64.9375 132.9375 C59.5773767 115.81351642 53.99252271 98.77052336 48.3125 81.75 C47.91255829 80.54963104 47.51261658 79.34926208 47.10055542 78.11251831 C45.96102736 74.69411025 44.81901576 71.27654508 43.67578125 67.859375 C43.33364594 66.83415237 42.99151062 65.80892975 42.63900757 64.75263977 C42.32025665 63.80269638 42.00150574 62.85275299 41.6730957 61.87402344 C41.39697952 61.04948669 41.12086334 60.22494995 40.83638 59.37542725 C39.96159521 56.89092545 38.97824598 54.44561494 38 52 C37.67 95.23 37.34 138.46 37 183 C24.79 183 12.58 183 0 183 C0 122.61 0 62.22 0 0 Z " fill="#037EC3" transform="translate(1006,1866)"/>
<path d="M0 0 C22.6153125 -0.0309375 22.6153125 -0.0309375 45.6875 -0.0625 C50.40377686 -0.071604 55.12005371 -0.08070801 59.97924805 -0.09008789 C65.85119629 -0.09460449 65.85119629 -0.09460449 68.62190247 -0.09544373 C70.50931536 -0.09695411 72.39672746 -0.10041684 74.28413391 -0.10557556 C84.62527694 -0.13236483 94.94781936 -0.04751553 105.28051758 0.40063477 C106.11021152 0.43372962 106.93990545 0.46682447 107.79474163 0.5009222 C125.60965497 1.37751498 141.44268976 5.65785787 154 19 C163.87385815 30.98968489 166.45472261 45.87765104 165 61 C163.37660408 70.41722601 160.60462903 80.16029232 155 88 C154.58363281 88.60714844 154.16726562 89.21429687 153.73828125 89.83984375 C148.58662647 96.58570688 140.87236147 101.08167432 133 104 C135.16948585 106.16948585 136.9809249 107.02446052 139.75 108.3125 C151.14680261 113.97815187 156.03059074 122.44685957 160.140625 134.1640625 C162.51709476 142.00641271 163.47562641 149.26601156 164 157.4375 C164.43095391 164.12925651 164.89733308 170.57807385 166.59765625 177.08227539 C167 179 167 179 167 183 C152.48 183 137.96 183 123 183 C119.69424072 165.36928387 119.69424072 165.36928387 119.125 157.5 C117.98158675 145.12677116 115.58582294 131.75142945 106 123 C93.30687281 113.16904855 75.83223501 114.48149798 60.6875 114.3125 C49.9521875 114.1578125 49.9521875 114.1578125 39 114 C39 136.77 39 159.54 39 183 C26.13 183 13.26 183 0 183 C0 122.61 0 62.22 0 0 Z " fill="#037EC3" transform="translate(2662,1866)"/>
<path d="M0 0 C19.01625 -0.0825 38.0325 -0.165 57.625 -0.25 C63.6057666 -0.28641602 69.5865332 -0.32283203 75.74853516 -0.36035156 C83.11206055 -0.37841797 83.11206055 -0.37841797 86.57089233 -0.3817749 C88.96114083 -0.38787435 91.35137783 -0.40185274 93.74154663 -0.42230225 C114.6995478 -0.59248232 131.79024193 0.65657728 147.8359375 15.625 C161.34283406 30.44845327 164.09108135 47.28555547 163.484375 66.55859375 C162.58667919 82.1889286 155.49602867 96.33500955 144 107 C133.67185637 114.7649547 123.89817505 118.17747974 110.97509766 118.11352539 C110.19393585 118.11367142 109.41277405 118.11381744 108.60794067 118.1139679 C106.0432857 118.11327498 103.47870468 118.10551184 100.9140625 118.09765625 C99.12901855 118.09578986 97.34397409 118.094367 95.55892944 118.09336853 C90.87362235 118.08956075 86.18834654 118.07974538 81.50305176 118.06866455 C75.87454372 118.05660875 70.2460252 118.05203991 64.61750793 118.04621124 C56.07831691 118.03653265 47.53919443 118.01736393 39 118 C39 139.12 39 160.24 39 182 C26.13 182 13.26 182 0 182 C0 121.94 0 61.88 0 0 Z " fill="#037EC3" transform="translate(2294,1867)"/>
<path d="M0 0 C2.10276482 0.00561302 4.20553364 0.00987502 6.30830383 0.01286316 C11.77441736 0.02417788 17.24028194 0.05352568 22.70629883 0.0869751 C28.31132645 0.11796866 33.9163953 0.13143032 39.52148438 0.14648438 C50.46887555 0.1784117 61.41601851 0.231066 72.36328125 0.29296875 C72.36328125 10.85296875 72.36328125 21.41296875 72.36328125 32.29296875 C69.85645752 32.30755127 67.34963379 32.32213379 64.7668457 32.3371582 C56.4407656 32.38772317 48.11486822 32.45435557 39.78896809 32.52868366 C34.745966 32.57321919 29.70304158 32.61251144 24.65991211 32.6394043 C19.78383008 32.66560623 14.90804967 32.70612529 10.03215599 32.75615501 C8.18128427 32.77271037 6.33036051 32.7842946 4.47942543 32.79058266 C-10.61687502 32.84700754 -25.69023669 33.14134595 -37.4453125 43.95703125 C-50.6153593 58.3422694 -50.37454498 79.77766006 -49.82470703 98.11572266 C-49.15316652 109.46562936 -47.09449472 122.19506115 -41.63671875 132.29296875 C-41.30285156 132.92976563 -40.96898437 133.5665625 -40.625 134.22265625 C-35.96933893 141.8350705 -27.75047674 145.21643962 -19.50926208 147.63949585 C-14.53085613 148.77202998 -9.59085066 148.77413608 -4.50390625 148.8046875 C-3.38605743 148.8226387 -2.26820862 148.8405899 -1.1164856 148.85908508 C2.41839947 148.9128286 5.95315232 148.94696841 9.48828125 148.98046875 C11.89975784 149.01367353 14.31121706 149.04816606 16.72265625 149.08398438 C22.60287985 149.17093404 28.48252175 149.2313122 34.36328125 149.29296875 C34.36328125 135.10296875 34.36328125 120.91296875 34.36328125 106.29296875 C17.53328125 106.29296875 0.70328125 106.29296875 -16.63671875 106.29296875 C-16.63671875 95.40296875 -16.63671875 84.51296875 -16.63671875 73.29296875 C12.73328125 73.29296875 42.10328125 73.29296875 72.36328125 73.29296875 C72.36328125 109.26296875 72.36328125 145.23296875 72.36328125 182.29296875 C47.82984375 182.38578125 47.82984375 182.38578125 22.80078125 182.48046875 C17.66443115 182.50778076 12.52808105 182.53509277 7.23608398 182.56323242 C0.8927002 182.57678223 0.8927002 182.57678223 -2.09068298 182.57929993 C-4.1442104 182.58386251 -6.19773052 182.59432037 -8.25120544 182.60969543 C-32.75602671 182.78376504 -53.32037671 179.74171799 -71.9140625 162.13671875 C-77.22973937 156.504754 -81.07571149 150.14176021 -84.63671875 143.29296875 C-85.02730469 142.55046875 -85.41789062 141.80796875 -85.8203125 141.04296875 C-98.00604026 114.4904102 -97.24482446 75.30067891 -87.44775391 48.36035156 C-83.81503286 39.10030284 -79.29224294 29.75842446 -72.63671875 22.29296875 C-72.12882812 21.70515625 -71.6209375 21.11734375 -71.09765625 20.51171875 C-52.63522818 0.56179648 -25.24008162 -0.20148427 0 0 Z " fill="#027DC3" transform="translate(1500.63671875,1866.70703125)"/>
<path d="M0 0 C15.18 0 30.36 0 46 0 C52.70611111 15.50788195 59.29348121 31.04889758 65.6875 46.6875 C66.18804398 47.91167633 66.18804398 47.91167633 66.69869995 49.1605835 C67.03588043 49.98528137 67.37306091 50.80997925 67.72045898 51.65966797 C68.40996219 53.34604144 69.09949693 55.03240203 69.7890625 56.71875 C70.30603447 57.98309372 70.30603447 57.98309372 70.83345032 59.27297974 C74.71404213 68.75654066 78.63551683 78.22307389 82.5625 87.6875 C83.09425339 88.9695784 83.09425339 88.9695784 83.63674927 90.27755737 C87.37300964 99.28474842 91.11748377 108.28844237 94.87890625 117.28515625 C101.47134609 133.05669277 108.00723244 148.8490273 114.4375 164.6875 C114.7712262 165.50810913 115.10495239 166.32871826 115.4487915 167.17419434 C116.38324332 169.47339097 117.3151682 171.77359246 118.24609375 174.07421875 C118.5265303 174.763983 118.80696686 175.45374725 119.09590149 176.16441345 C121 180.88462001 121 180.88462001 121 182 C105.82 182 90.64 182 75 182 C72.525 176.06 72.525 176.06 70 170 C68.96816128 167.58860332 67.93140115 165.1792978 66.88671875 162.7734375 C66.35594766 161.54564731 65.82535316 160.31778078 65.29492188 159.08984375 C64.48243344 157.21066946 63.66880739 155.33201956 62.85229492 153.45458984 C62.04799186 151.60396012 61.24852193 149.7512322 60.44921875 147.8984375 C59.97830811 146.81224121 59.50739746 145.72604492 59.0222168 144.60693359 C58 142 58 142 58 140 C34.9 140 11.8 140 -12 140 C-12.99 142.97 -13.98 145.94 -15 149 C-16.01147373 151.6274242 -17.03707129 154.2384958 -18.1015625 156.84375 C-18.5244606 157.88650085 -18.5244606 157.88650085 -18.9559021 158.95031738 C-19.54442235 160.39940333 -20.13432601 161.84792818 -20.72558594 163.29589844 C-21.63363175 165.52115295 -22.53582408 167.74872037 -23.4375 169.9765625 C-24.01267695 171.39076491 -24.58818544 172.80483254 -25.1640625 174.21875 C-25.43384918 174.88531616 -25.70363586 175.55188232 -25.9815979 176.23864746 C-27.88488369 180.88488369 -27.88488369 180.88488369 -29 182 C-30.41225046 182.0928726 -31.82908934 182.11746772 -33.24438477 182.11352539 C-34.14524307 182.11344986 -35.04610138 182.11337433 -35.97425842 182.11329651 C-36.95341721 182.10813522 -37.93257599 182.10297394 -38.94140625 182.09765625 C-39.93881332 182.0962413 -40.9362204 182.09482635 -41.96385193 182.09336853 C-45.16343124 182.08775114 -48.36294169 182.07519571 -51.5625 182.0625 C-53.72591045 182.05748724 -55.88932199 182.05292395 -58.05273438 182.04882812 C-63.36851325 182.03777607 -68.68425171 182.02102104 -74 182 C-73.30465668 177.38764982 -71.60823261 173.27623196 -69.82421875 169 C-69.50335297 168.22081207 -69.18248718 167.44162415 -68.85189819 166.63882446 C-67.80138832 164.09075444 -66.74450044 161.54538361 -65.6875 159 C-64.95134798 157.21809874 -64.21559325 155.43603329 -63.48022461 153.65380859 C-61.65381471 149.23012057 -59.82240523 144.80852344 -57.98937988 140.38757324 C-56.61226782 137.06432402 -55.23959165 133.7392588 -53.8671875 130.4140625 C-50.91836443 123.27317547 -47.96022291 116.13616735 -45 109 C-44.70025269 108.27737976 -44.40050537 107.55475952 -44.0916748 106.8102417 C-43.44692825 105.25591391 -42.80217818 103.70158758 -42.15742493 102.14726257 C-40.41735366 97.95238165 -38.67737235 93.75746343 -36.9375 89.5625 C-36.58398468 88.71015778 -36.23046936 87.85781555 -35.86624146 86.97964478 C-30.30990778 73.58192281 -24.76265989 60.18046105 -19.22415161 46.77536011 C-18.42534551 44.84197971 -17.62642113 42.90864817 -16.82736206 40.97537231 C-11.18765954 27.32932922 -5.58489049 13.66857623 0 0 Z " fill="#027DC3" transform="translate(2522,1867)"/>
<path d="M0 0 C0.79719955 0.00222061 1.59439911 0.00444122 2.41575623 0.00672913 C3.76704369 0.00684242 3.76704369 0.00684242 5.14562988 0.00695801 C6.12478867 0.01211929 7.10394745 0.01728058 8.11277771 0.02259827 C9.11018478 0.02401321 10.10759186 0.02542816 11.13522339 0.02688599 C14.3348027 0.03250337 17.53431315 0.04505881 20.73387146 0.05775452 C22.89728191 0.06276728 25.06069345 0.06733057 27.22410583 0.07142639 C32.53988471 0.08247845 37.85562317 0.09923348 43.17137146 0.12025452 C48.50535989 10.62564584 48.50535989 10.62564584 50.31980896 15.29994202 C50.67679871 16.20832825 51.03378845 17.11671448 51.40159607 18.05262756 C51.77937195 19.02369446 52.15714783 19.99476135 52.54637146 20.99525452 C56.62024719 31.31558424 60.82703603 41.57242547 65.10887146 51.80775452 C66.40484142 54.9078491 67.70037536 58.00812562 68.99559021 61.10853577 C69.33048462 61.9101413 69.66537903 62.71174683 70.01042175 63.53764343 C74.17449216 73.51230486 78.29781576 83.50379278 82.42137146 93.49525452 C82.81553253 94.45018799 83.2096936 95.40512146 83.61579895 96.38899231 C85.22804851 100.29508085 86.84015548 104.20122816 88.45196533 108.10749817 C91.41921079 115.29866053 94.38849138 122.48898016 97.35887146 129.67884827 C97.78504761 130.71044067 98.21122375 131.74203308 98.65031433 132.80488586 C100.30349517 136.80648837 101.95670719 140.808078 103.60997009 144.80964661 C103.99149231 145.7331189 104.37301453 146.65659119 104.76609802 147.60804749 C105.13926147 148.51121704 105.51242493 149.4143866 105.89689636 150.34492493 C106.62186562 152.10038189 107.34636659 153.85603233 108.07035828 155.6118927 C109.79475922 159.79352734 111.52562777 163.97221905 113.27098083 168.14515686 C113.76437958 169.32968697 113.76437958 169.32968697 114.26774597 170.53814697 C114.88504251 172.01973992 115.50504701 173.50020857 116.1282196 174.9793396 C118.17137146 179.89506984 118.17137146 179.89506984 118.17137146 182.12025452 C102.99137146 182.12025452 87.81137146 182.12025452 72.17137146 182.12025452 C66.48387146 168.37025452 66.48387146 168.37025452 64.72337341 164.11341858 C64.24859558 162.96583069 63.77381775 161.8182428 63.28465271 160.63587952 C62.80810242 159.48377991 62.33155212 158.3316803 61.84056091 157.14466858 C59.62398344 151.80050257 57.3966075 146.46082102 55.17137146 141.12025452 C20.52137146 140.62525452 20.52137146 140.62525452 -14.82862854 140.12025452 C-15.15862854 141.77025452 -15.48862854 143.42025452 -15.82862854 145.12025452 C-16.28123595 146.41995371 -16.77279212 147.70677907 -17.30323792 148.97669983 C-17.60024597 149.69384155 -17.89725403 150.41098328 -18.20326233 151.14985657 C-18.52307068 151.90836914 -18.84287903 152.66688171 -19.17237854 153.44837952 C-19.50153259 154.23799072 -19.83068665 155.02760193 -20.16981506 155.84114075 C-20.86362458 157.50280509 -21.55967511 159.16353528 -22.25782776 160.82337952 C-23.32987087 163.37320938 -24.39423612 165.92614254 -25.45753479 168.47962952 C-26.13286744 170.09440054 -26.80863351 171.70899038 -27.48487854 173.32337952 C-27.96459106 174.47329376 -27.96459106 174.47329376 -28.45399475 175.6464386 C-30.71270773 181.0043337 -30.71270773 181.0043337 -31.82862854 182.12025452 C-33.240879 182.21312712 -34.65771788 182.23772223 -36.07301331 182.23377991 C-36.97387161 182.23370438 -37.87472992 182.23362885 -38.80288696 182.23355103 C-39.78204575 182.22838974 -40.76120453 182.22322845 -41.77003479 182.21791077 C-42.76744186 182.21649582 -43.76484894 182.21508087 -44.79248047 182.21362305 C-47.99205978 182.20800566 -51.19157023 182.19545023 -54.39112854 182.18275452 C-56.55453899 182.17774176 -58.71795053 182.17317846 -60.88136292 182.16908264 C-66.19714179 182.15803059 -71.51288025 182.14127555 -76.82862854 182.12025452 C-75.04316129 176.61372692 -73.13338267 171.20267123 -70.95753479 165.83509827 C-70.68361404 165.15800308 -70.4096933 164.4809079 -70.12747192 163.78329468 C-69.21855331 161.54013551 -68.30509233 159.29886239 -67.39112854 157.05775452 C-67.07005127 156.26792175 -66.748974 155.47808899 -66.41816711 154.6643219 C-58.58169145 135.38885407 -50.55288244 116.19325855 -42.53242493 96.99383545 C-38.42836595 87.16730699 -34.34400372 77.3326726 -30.26612854 67.49525452 C-29.76124908 66.27799683 -29.76124908 66.27799683 -29.24617004 65.03614807 C-25.01013796 54.82286633 -20.79040088 44.60298548 -16.58253479 34.37806702 C-15.26226383 31.17239312 -13.94183759 27.96678322 -12.62138367 24.76118469 C-11.34799007 21.66729606 -10.07740474 18.57226395 -8.80690002 15.47718811 C-8.03302205 13.59774038 -7.25902139 11.71834316 -6.48487854 9.83900452 C-6.12845779 8.96825287 -5.77203705 8.09750122 -5.40481567 7.20036316 C-5.07867783 6.41015778 -4.75253998 5.61995239 -4.41651917 4.80580139 C-4.1324823 4.11450134 -3.84844543 3.42320129 -3.55580139 2.71095276 C-2.38831343 0.15706059 -2.38831343 0.15706059 0 0 Z " fill="#027DC3" transform="translate(1935.828628540039,1866.8797454833984)"/>
<path d="M0 0 C1.67048904 -0.00043808 1.67048904 -0.00043808 3.37472534 -0.00088501 C7.0106418 0.00049462 10.64634646 0.01599086 14.28222656 0.03173828 C16.82098275 0.03547328 19.35974039 0.03831795 21.89849854 0.04031372 C27.86926452 0.04713764 33.83996395 0.06285755 39.81069589 0.0830127 C46.61615457 0.10547983 53.42161709 0.11639213 60.22710371 0.12640357 C74.2090683 0.14722745 88.1909391 0.18385982 102.17285156 0.22705078 C102.17285156 10.78705078 102.17285156 21.34705078 102.17285156 32.22705078 C99.16039307 32.2416333 96.14793457 32.25621582 93.04418945 32.27124023 C83.0736461 32.32165297 73.10325782 32.38825999 63.13286686 32.46276569 C57.08981226 32.50742894 51.04682446 32.54669418 45.00366211 32.57348633 C39.16801208 32.59955935 33.33261963 32.63999056 27.49712944 32.69023705 C25.2745224 32.70687863 23.05187083 32.71840972 20.82921028 32.72466469 C17.70788916 32.73433505 14.58722303 32.76243021 11.46606445 32.79467773 C10.55399734 32.79324265 9.64193024 32.79180756 8.70222473 32.79032898 C1.44267169 32.8958975 -5.06637006 33.93619212 -10.76464844 38.66455078 C-14.54601664 43.36261431 -15.14135512 46.51055996 -15.20214844 52.60205078 C-15.2446875 54.53177734 -15.2446875 54.53177734 -15.28808594 56.50048828 C-14.62725974 61.84310005 -12.29244584 64.8388743 -8.45214844 68.47705078 C-2.30444475 72.57551991 3.71223474 72.53264109 10.85253906 72.57080078 C11.89693146 72.58542358 12.94132385 72.60004639 14.0173645 72.6151123 C17.36082065 72.66146333 20.7042239 72.69563933 24.04785156 72.72705078 C37.09029174 72.85318657 50.10540764 73.05898769 63.11816406 74.00830078 C64.06964325 74.06812134 65.02112244 74.12794189 66.00143433 74.1895752 C78.51586621 75.21641454 90.67775689 80.17550931 99.42285156 89.35205078 C110.32115841 102.51808613 113.38787713 118.37699288 112.38867188 135.05078125 C110.87679595 150.29610023 103.54354159 162.67211279 92.42285156 172.82470703 C82.06552902 180.96616008 68.00463254 182.53926824 55.3190918 182.45410156 C54.16685623 182.45439362 53.01462067 182.45468567 51.82746887 182.45498657 C48.04538255 182.453601 44.26349693 182.43807606 40.48144531 182.42236328 C37.84872037 182.41863041 35.21599404 182.41578473 32.58326721 182.41378784 C26.37865531 182.40759372 20.17411464 182.39121117 13.96953398 182.37108886 C6.90054601 182.34866516 -0.16844552 182.33772023 -7.23746026 182.32769799 C-21.76739815 182.30684288 -36.29725912 182.27019277 -50.82714844 182.22705078 C-50.82714844 171.33705078 -50.82714844 160.44705078 -50.82714844 149.22705078 C-47.85545654 149.21770508 -44.88376465 149.20835937 -41.82202148 149.19873047 C-31.9752027 149.16487927 -22.12859169 149.10928499 -12.28193951 149.04314804 C-6.31514617 149.00373252 -0.34849911 148.97151485 5.6184082 148.95605469 C11.38279985 148.94084928 17.14678919 148.90633434 22.91100121 148.85874176 C25.10404134 148.84396806 27.29713892 148.83601208 29.49022865 148.83516693 C47.03667035 148.83523325 47.03667035 148.83523325 63.17285156 142.47705078 C67.15457617 137.99761059 68.84029044 132.38653048 68.59082031 126.37548828 C67.51073344 120.82363989 64.72875225 115.91260986 60.92285156 111.78955078 C53.37077474 107.49859804 46.1511179 106.78660621 37.58691406 106.78564453 C36.49051605 106.77243668 35.39411804 106.75922882 34.26449585 106.74562073 C30.77558914 106.70498869 27.2869398 106.68316892 23.79785156 106.66455078 C-2.41183557 106.48194986 -2.41183557 106.48194986 -13.60449219 105.31298828 C-14.35640839 105.23459213 -15.10832458 105.15619598 -15.88302612 105.07542419 C-27.51904518 103.70713611 -37.99530087 99.06298137 -45.82714844 90.22705078 C-46.38273437 89.60185547 -46.93832031 88.97666016 -47.51074219 88.33251953 C-56.97963461 77.03093825 -60.34349049 63.73904884 -59.70214844 49.16455078 C-58.37346762 35.11179724 -52.4163401 20.56034383 -41.50292969 11.24267578 C-28.89590368 1.98037096 -15.35660643 -0.10795665 0 0 Z " fill="#037EC3" transform="translate(3381.8271484375,1866.77294921875)"/>
<path d="M0 0 C0.81056854 -0.00014603 1.62113708 -0.00029205 2.45626831 -0.0004425 C5.11288204 0.00024945 7.76942404 0.00800801 10.42602539 0.01586914 C12.27690086 0.01773587 14.12777682 0.01915857 15.97865295 0.02015686 C20.83327618 0.02396195 25.68786914 0.03377497 30.54248047 0.04486084 C35.50300691 0.05511825 40.46353826 0.05966374 45.42407227 0.06469727 C55.14479077 0.07539915 64.86547895 0.09297957 74.58618164 0.11352539 C74.58618164 10.67352539 74.58618164 21.23352539 74.58618164 32.11352539 C67.82633789 32.16959961 67.82633789 32.16959961 60.92993164 32.22680664 C58.04057361 32.25715415 55.15127221 32.28834582 52.26196289 32.32250977 C47.69607753 32.37641974 43.13030412 32.42753955 38.56420898 32.45996094 C34.87461234 32.48635709 31.18540143 32.52700079 27.49604797 32.57671165 C26.10261407 32.59313932 24.70911385 32.60480096 23.31559753 32.6111393 C10.75580073 32.67393064 -4.0645545 32.77610915 -14.29272461 40.96899414 C-22.6426787 49.41121291 -24.83288635 58.02285301 -25.95288086 69.42211914 C-26.04005371 70.30569092 -26.12722656 71.1892627 -26.21704102 72.09960938 C-26.28197754 72.76420166 -26.34691406 73.42879395 -26.41381836 74.11352539 C-25.15070328 74.12383286 -23.8875882 74.13414032 -22.5861969 74.14476013 C-10.71052891 74.24231197 1.16508453 74.34502827 13.04066372 74.45286465 C19.14671924 74.50814306 25.25277951 74.56157077 31.35888672 74.61083984 C37.2462757 74.65841103 43.13360436 74.71075093 49.02092171 74.76646614 C51.27248708 74.78692264 53.52406902 74.80563013 55.77566338 74.82259941 C58.91756077 74.84657074 62.05934297 74.87663486 65.20117188 74.90820312 C66.61241585 74.91683632 66.61241585 74.91683632 68.0521698 74.92564392 C74.47212948 74.99947323 74.47212948 74.99947323 75.58618164 76.11352539 C75.68639094 78.39300331 75.71699467 80.67559674 75.71899414 82.95727539 C75.71995087 83.64156616 75.72090759 84.32585693 75.72189331 85.03088379 C75.72257494 86.48014416 75.72072187 87.92940757 75.71655273 89.37866211 C75.71120416 91.60415467 75.71649824 93.8294454 75.72290039 96.05493164 C75.72223961 97.45988001 75.72095844 98.86482824 75.71899414 100.26977539 C75.71786621 101.5569043 75.71673828 102.8440332 75.71557617 104.17016602 C75.58618164 107.11352539 75.58618164 107.11352539 74.58618164 108.11352539 C71.45128961 108.23894817 68.33738327 108.29966209 65.20117188 108.31884766 C64.21591522 108.32874725 63.23065857 108.33864685 62.21554565 108.34884644 C58.94198044 108.38056533 55.66840069 108.40525976 52.39477539 108.42993164 C50.13175569 108.45049221 47.86873991 108.47148843 45.60572815 108.49290466 C39.63643559 108.54821805 33.66710785 108.59758632 27.69775391 108.64575195 C21.611703 108.69589949 15.52570348 108.75162069 9.43969727 108.80688477 C-2.51143077 108.91457961 -14.46260332 109.01599926 -26.41381836 109.11352539 C-25.9709105 111.49797818 -25.51914585 113.88018398 -25.06225586 116.26196289 C-24.93906982 116.93026123 -24.81588379 117.59855957 -24.68896484 118.28710938 C-23.07680444 126.60219537 -20.00947363 133.617146 -13.41381836 139.11352539 C-12.90077148 139.5427832 -12.38772461 139.97204102 -11.85913086 140.41430664 C-3.58160504 146.87993165 6.15711394 148.18069723 16.43945312 148.31884766 C17.08421097 148.32874725 17.72896881 148.33864685 18.39326477 148.34884644 C20.49789924 148.38011828 22.60255618 148.40508108 24.70727539 148.42993164 C26.17701258 148.45053092 27.64674425 148.47152812 29.11647034 148.49290466 C32.9649098 148.54781849 36.81339999 148.59736168 40.66192627 148.64575195 C45.29016352 148.70507759 49.91830909 148.77113491 54.54647064 148.83605194 C61.55965114 148.93367472 68.57289334 149.02279471 75.58618164 149.11352539 C75.58618164 160.00352539 75.58618164 170.89352539 75.58618164 182.11352539 C58.87863429 182.19374301 58.87863429 182.19374301 51.63110352 182.21118164 C46.72960964 182.22303225 41.82819205 182.23688556 36.92675781 182.2644043 C-26.81715386 182.61233411 -26.81715386 182.61233411 -46.37866211 164.33618164 C-54.60540288 155.35150697 -60.27050353 145.56638966 -64.41381836 134.11352539 C-64.75968994 133.1820166 -64.75968994 133.1820166 -65.11254883 132.23168945 C-75.56828026 103.65801119 -74.65145084 68.91494751 -62.07397461 41.15649414 C-53.50979597 24.57377706 -40.37317207 9.90493233 -22.67944336 3.05493164 C-15.20299826 0.68739069 -7.82560961 -0.03746646 0 0 Z " fill="#047EC3" transform="translate(1311.413818359375,1866.886474609375)"/>
<path d="M0 0 C1.79888755 0.00373816 3.59777715 0.00658133 5.39666748 0.00857544 C10.09179477 0.01614876 14.78679491 0.03574182 19.48187256 0.0579834 C24.2886788 0.0785789 29.09550594 0.08760623 33.90234375 0.09765625 C43.30475186 0.11899474 52.70703288 0.15412418 62.109375 0.1953125 C62.109375 10.7553125 62.109375 21.3153125 62.109375 32.1953125 C57.87996094 32.24429687 53.65054688 32.29328125 49.29296875 32.34375 C45.87770835 32.38842287 42.46248313 32.43491029 39.0472641 32.48260498 C35.46587251 32.53213114 31.8845062 32.57861084 28.30297852 32.6171875 C24.84039295 32.65460934 21.37802813 32.70110511 17.91563606 32.75337601 C15.98024485 32.78038104 14.04473554 32.79846571 12.10923767 32.81625366 C-10.6917749 33.09121238 -10.6917749 33.09121238 -29.8828125 43.9296875 C-38.05573388 53.15205015 -37.88938411 62.52078684 -39.890625 75.1953125 C-6.230625 75.1953125 27.429375 75.1953125 62.109375 75.1953125 C62.109375 86.0853125 62.109375 96.9753125 62.109375 108.1953125 C28.449375 108.1953125 -5.210625 108.1953125 -39.890625 108.1953125 C-35.847243 127.75445335 -35.847243 127.75445335 -22.953125 141.87890625 C-12.30236489 148.67683458 0.17758767 148.50766892 12.40234375 148.609375 C13.84394891 148.62813023 15.2855436 148.64770671 16.72712708 148.6680603 C20.48342655 148.71892846 24.23976144 148.75879352 27.99621582 148.79620361 C32.52364449 148.84364709 37.05090373 148.90504668 41.57819366 148.96405029 C48.42185065 149.0517086 55.26548436 149.12186775 62.109375 149.1953125 C62.109375 160.0853125 62.109375 170.9753125 62.109375 182.1953125 C46.85020132 182.27553012 46.85020132 182.27553012 40.17578125 182.29296875 C35.68077678 182.30477022 31.18585623 182.31848109 26.69091797 182.34619141 C12.28389755 182.43249355 -2.08898151 182.50053379 -16.4609375 181.328125 C-17.4003418 181.25224152 -18.33974609 181.17635803 -19.30761719 181.09817505 C-37.40634627 179.39799518 -53.1114865 171.9883726 -64.86328125 157.81640625 C-71.38920144 148.88091553 -75.74656173 139.2359538 -79.140625 128.7578125 C-79.3869165 128.00765869 -79.63320801 127.25750488 -79.88696289 126.48461914 C-83.53238914 114.69711132 -84.21304208 102.97000682 -84.140625 90.6953125 C-84.14835937 89.38433594 -84.15609375 88.07335938 -84.1640625 86.72265625 C-84.11723035 63.14266685 -78.14033533 39.86610016 -61.890625 22.1953125 C-61.19195313 21.41671875 -60.49328125 20.638125 -59.7734375 19.8359375 C-43.11010603 2.16450413 -23.00158823 -0.14170985 0 0 Z " fill="#037EC3" transform="translate(3095.890625,1866.8046875)"/>
<path d="M0 0 C1.73591572 0.00186787 3.47183197 0.00329003 5.20774841 0.00428772 C9.7499846 0.00808384 14.2921882 0.01788895 18.83441162 0.0289917 C23.48009806 0.03926864 28.12578982 0.04379874 32.77148438 0.04882812 C41.86720403 0.05951415 50.96289107 0.07708704 60.05859375 0.09765625 C60.05859375 10.65765625 60.05859375 21.21765625 60.05859375 32.09765625 C53.02998047 32.15373047 53.02998047 32.15373047 45.859375 32.2109375 C42.86519978 32.24126503 39.87108059 32.27244389 36.87695312 32.30664062 C32.13959827 32.36066768 27.40235422 32.41178633 22.66479492 32.4440918 C18.83905521 32.47037875 15.01369445 32.51095309 11.18819237 32.56084251 C9.73924718 32.57734173 8.29023671 32.58896021 6.84121132 32.59527016 C-6.72376717 32.6602324 -20.52136876 33.65562675 -31.09375 43 C-42.59925722 54.84831563 -44.33633663 70.52423123 -44.19140625 86.34765625 C-44.18391357 87.43739746 -44.1764209 88.52713867 -44.16870117 89.64990234 C-43.95242645 105.97803952 -42.94142575 126.54500427 -30.94140625 139.09765625 C-19.89091637 147.91081103 -7.14485568 148.55325382 6.4453125 148.609375 C7.99902228 148.62625633 9.55271869 148.6444111 11.10639954 148.66377258 C15.1586387 148.71090446 19.21082366 148.74095021 23.26324463 148.76721191 C28.14528501 148.80249596 33.02711729 148.85940191 37.90898895 148.91260529 C45.29216257 148.99068664 52.67507196 149.04161801 60.05859375 149.09765625 C60.05859375 159.98765625 60.05859375 170.87765625 60.05859375 182.09765625 C49.26958494 182.18856995 38.4808368 182.26172241 27.69152927 182.30490494 C22.67986713 182.32564609 17.66848404 182.35371273 12.65698242 182.39941406 C7.80695348 182.44335848 2.95719036 182.4668942 -1.89302254 182.47716522 C-3.72950479 182.48447048 -5.56597499 182.49873142 -7.40234184 182.52057648 C-22.26964751 182.69015743 -37.17059069 181.55621634 -50.50390625 174.28515625 C-51.16463135 173.93678711 -51.82535645 173.58841797 -52.50610352 173.22949219 C-66.68984138 165.51937575 -74.93204137 152.80769666 -80.94140625 138.09765625 C-81.50988281 136.86402344 -81.50988281 136.86402344 -82.08984375 135.60546875 C-93.51774865 108.71122639 -90.90793619 70.05416711 -80.41015625 43.265625 C-75.78018583 33.27917285 -69.68382012 24.88268891 -61.94140625 17.09765625 C-61.15056641 16.25460937 -61.15056641 16.25460937 -60.34375 15.39453125 C-44.69392597 0.1849836 -20.30700225 -0.06443362 0 0 Z " fill="#027DC3" transform="translate(2933.94140625,1866.90234375)"/>
<path d="M0 0 C15.18 0 30.36 0 46 0 C48.145 3.856875 50.29 7.71375 52.5 11.6875 C56.78743923 19.36507588 61.11342371 26.97535377 65.796875 34.41796875 C69.06464282 39.66654104 72.13916525 45.03263536 75.25 50.375 C75.85328125 51.41084229 76.4565625 52.44668457 77.078125 53.51391602 C78.21630167 55.47126867 79.35247909 57.42978571 80.48632812 59.38964844 C81.42077883 61.00112375 82.36099966 62.60928781 83.31054688 64.21191406 C86 68.7849297 86 68.7849297 86 71 C86.66 71 87.32 71 88 71 C88.21914062 70.35160156 88.43828125 69.70320313 88.6640625 69.03515625 C90.48919501 64.88858327 92.91791522 61.23513104 95.375 57.4375 C99.73370357 50.62429735 103.98697443 43.76195872 108.125 36.8125 C118.80678047 18.89669073 118.80678047 18.89669073 122.76977539 13.08276367 C124.12459188 10.94046322 124.12459188 10.94046322 125.02514648 8.11450195 C126.61522801 4.4090787 127.79897976 2.50090799 131 0 C138.563444 -1.90752294 146.7237698 -1.02469013 154.4375 -0.6875 C156.62162239 -0.63229388 158.80587786 -0.58210885 160.99023438 -0.53710938 C166.32973475 -0.41617862 171.66425254 -0.23243066 177 0 C175.42834116 4.13350604 173.5190503 7.24975426 170.875 10.8125 C166.04850951 17.41064787 161.51032374 24.18275658 157 31 C152.63435944 37.59006737 148.26384732 44.16090952 143.625 50.5625 C139.89230244 55.71599062 136.32649135 60.95261527 132.81665039 66.25830078 C128.98786727 72.04060551 125.06803296 77.75733522 121.12890625 83.46484375 C120.70285599 84.10365982 120.27680573 84.74247589 119.83784485 85.40065002 C118.39490548 87.4414667 116.91195059 89.34849798 115.33364868 91.28041077 C107.08144116 101.75196073 105.41974208 109.73382016 105.70703125 122.84375 C105.70510363 124.59209348 105.6983118 126.34043759 105.68693542 128.08874512 C105.67012965 132.63369286 105.71822966 137.17558184 105.78112793 141.72003174 C105.84299905 147.20260726 105.82201919 152.68545085 105.81536102 158.16828918 C105.81436649 166.44741174 105.91680681 174.71937519 106 183 C93.13 183 80.26 183 67 183 C67.04382812 177.32683594 67.08765625 171.65367187 67.1328125 165.80859375 C67.13831231 162.18536682 67.14083729 158.56261407 67.1328125 154.93945312 C67.1203902 149.20524271 67.11817666 143.47246375 67.18164062 137.73852539 C67.23219377 133.10826775 67.23288863 128.48029812 67.20095444 123.8499012 C67.19724208 122.09549028 67.21062361 120.3409459 67.24249649 118.5868206 C67.45408151 106.08107448 65.14317532 98.43087131 57.28042793 88.63758183 C55.19020896 85.96433133 53.36901064 83.13347827 51.5078125 80.296875 C50.78932129 79.22429443 50.07083008 78.15171387 49.33056641 77.04663086 C42.82487599 67.32266166 36.39523101 57.5656453 30.19140625 47.64501953 C24.37301537 38.35936733 18.2429626 29.28221595 12.11035156 20.20214844 C10.15332907 17.30382228 8.20163205 14.40195758 6.25 11.5 C5.31824951 10.12739014 5.31824951 10.12739014 4.36767578 8.72705078 C3.79774902 7.87868652 3.22782227 7.03032227 2.640625 6.15625 C2.13047852 5.40150391 1.62033203 4.64675781 1.09472656 3.86914062 C0 2 0 2 0 0 Z " fill="#037EC3" transform="translate(2030,1866)"/>
<path d="M0 0 C12.54 0 25.08 0 38 0 C38.029729 4.87881958 38.029729 4.87881958 38.06005859 9.85620117 C38.12738457 20.68078392 38.20501411 31.50527584 38.28752708 42.32975292 C38.33717715 48.88363271 38.38350626 55.43749877 38.421875 61.99145508 C38.45912765 68.33283941 38.50558784 74.67409917 38.55806351 81.01537514 C38.57639762 83.417868 38.5915802 85.82038735 38.60334396 88.22292137 C38.66143949 99.69249239 38.81771077 111.14409663 39.71337891 122.58325195 C39.79100495 123.82093842 39.79100495 123.82093842 39.8701992 125.08362865 C40.51510796 132.0746817 43.13205967 138.06171396 48.0703125 143.12109375 C57.89037792 149.41265658 68.61514079 149.30765504 79.98046875 149.4140625 C81.27447098 149.43342865 82.56847321 149.4527948 83.90168762 149.4727478 C87.30287839 149.52354823 90.70410822 149.56344844 94.10546875 149.60089111 C97.59189051 149.64126214 101.07815963 149.69210129 104.56445312 149.7421875 C111.37624042 149.83929644 118.18792135 149.91923276 125 150 C125 160.89 125 171.78 125 183 C108.30136571 183.08021762 108.30136571 183.08021762 101.10742188 183.09765625 C96.22513405 183.10954795 91.34292221 183.12351713 86.46069336 183.15087891 C82.51844139 183.17283096 78.57627107 183.18461503 74.63396263 183.18975449 C73.14029851 183.19341057 71.64663815 183.20054809 70.15300941 183.21146011 C50.65754148 183.34804402 31.12026932 180.58129854 16.25 166.75 C12.39377466 162.63064399 9.64486659 157.95912487 7 153 C6.6184375 152.30261719 6.236875 151.60523438 5.84375 150.88671875 C-1.77343814 135.56578352 -0.40735191 118.03421326 -0.30418181 101.43023801 C-0.28521587 97.85487178 -0.2836491 94.27949508 -0.28010559 90.7040863 C-0.27084284 83.95777283 -0.24630874 77.21160809 -0.21605712 70.46535963 C-0.18233154 62.77473181 -0.16598183 55.08409626 -0.15097082 47.39341271 C-0.11975277 31.59550809 -0.06481459 15.79780794 0 0 Z " fill="#027DC3" transform="translate(3187,1866)"/>
<path d="M0 0 C8.971875 -0.061875 17.94375 -0.12375 27.1875 -0.1875 C29.9927417 -0.21481201 32.7979834 -0.24212402 35.68823242 -0.27026367 C37.95230684 -0.27903885 40.21638606 -0.28668033 42.48046875 -0.29296875 C43.62310181 -0.30831665 44.76573486 -0.32366455 45.94299316 -0.33947754 C59.05985789 -0.343666 70.91827267 1.93046553 80.99609375 10.74609375 C92.05184698 22.18225999 93.34635007 38.21220481 93.23242188 53.33300781 C92.9415498 67.0330825 90.86824027 81.01399767 81.015625 91.31640625 C70.96581334 99.71072568 59.38226325 100.29559169 46.875 100.1953125 C45.68390625 100.19329834 44.4928125 100.19128418 43.265625 100.18920898 C38.84371046 100.17879587 34.4218511 100.15087351 30 100.125 C20.1 100.08375 10.2 100.0425 0 100 C0 67 0 34 0 0 Z " fill="#4F4F4F" transform="translate(2924,2192)"/>
<path d="M0 0 C12.20927231 12.96519348 14.35734994 28.83308903 13.93359375 45.98046875 C13.66795484 51.92386039 12.67739769 57.36179242 10.64453125 62.9609375 C10.36609375 63.75371094 10.08765625 64.54648438 9.80078125 65.36328125 C5.82457141 75.38950003 -0.51842091 82.49695303 -10.35546875 86.9609375 C-26.23355756 93.48701498 -44.35369055 92.73588092 -60.35546875 86.9609375 C-71.08781513 82.05431801 -77.98053197 74.86326128 -82.35546875 63.9609375 C-84.98141129 55.73684808 -85.82620875 47.99908039 -85.73046875 39.3984375 C-85.74207031 38.35236328 -85.75367187 37.30628906 -85.765625 36.22851562 C-85.71750842 23.30921388 -82.06581119 10.25372005 -73.14453125 0.5546875 C-54.65363389 -15.91755295 -18.7107502 -16.19736585 0 0 Z " fill="#4F4F4F" transform="translate(2225.35546875,2202.0390625)"/>
<path d="M0 0 C10.539375 -0.061875 21.07875 -0.12375 31.9375 -0.1875 C35.249021 -0.21481201 38.56054199 -0.24212402 41.97241211 -0.27026367 C44.61571895 -0.27903073 47.25902986 -0.28667415 49.90234375 -0.29296875 C50.57793839 -0.30080887 51.25353302 -0.30864899 51.94960022 -0.31672668 C64.60234558 -0.4560492 72.5469869 0.72617276 81.83203125 9.59375 C84.7436962 12.82543578 86.50056187 15.94628645 88 20 C88.4125 20.9075 88.825 21.815 89.25 22.75 C91.6256154 33.04433341 89.98110031 43.13441926 84.75 52.25 C80.23918009 58.91524136 74.82191484 62.88956688 67 65 C63.37744047 65.38223602 59.7955647 65.35136902 56.15625 65.29296875 C55.14655151 65.28872391 54.13685303 65.28447906 53.09655762 65.28010559 C49.89742443 65.26342214 46.69894017 65.22578903 43.5 65.1875 C41.32032165 65.17243982 39.14063335 65.15875375 36.9609375 65.14648438 C31.64017881 65.11611475 26.32080878 65.05737294 21 65 C21 76.55 21 88.1 21 100 C14.07 100 7.14 100 0 100 C0 67 0 34 0 0 Z " fill="#4D4D4D" transform="translate(2042,2192)"/>
<path d="M0 0 C10.4775 -0.103125 20.955 -0.20625 31.75 -0.3125 C35.03420898 -0.35802002 38.31841797 -0.40354004 41.70214844 -0.45043945 C44.33788027 -0.46505782 46.97362349 -0.47779529 49.609375 -0.48828125 C50.61100677 -0.50788155 50.61100677 -0.50788155 51.63287354 -0.52787781 C61.87255826 -0.71788958 71.44636942 0.16551172 79.465271 7.14604187 C81.55901781 9.31102582 83.28878876 11.52367989 85 14 C85.45375 14.63164062 85.9075 15.26328125 86.375 15.9140625 C91.07430536 24.10521281 90.20700043 36.20068433 88.33984375 45.171875 C85.1461987 54.07537029 79.19764861 59.94680777 70.78765869 63.98324585 C66.10773287 65.69017433 61.67295498 65.61859501 56.7421875 65.48828125 C55.71312286 65.48120651 54.68405823 65.47413177 53.62380981 65.46684265 C50.37343125 65.43910641 47.12484787 65.37640692 43.875 65.3125 C41.65627508 65.28739031 39.43752285 65.26458185 37.21875 65.24414062 C31.81127112 65.19362232 26.40761759 65.09572887 21 65 C21 76.55 21 88.1 21 100 C14.07 100 7.14 100 0 100 C0 67 0 34 0 0 Z " fill="#4D4D4D" transform="translate(1480,2192)"/>
<path d="M0 0 C9.24 0 18.48 0 28 0 C36.1901205 14.17520856 44.33640357 28.4296212 51.5625 43.125 C56.11028831 52.22057661 61.0992893 61.0896169 66 70 C66.33 46.9 66.66 23.8 67 0 C73.93 0 80.86 0 88 0 C88 33 88 66 88 100 C79.09 100 70.18 100 61 100 C51.46788111 83.43794343 42.2004074 66.74768422 33 50 C27.555 40.1 27.555 40.1 22 30 C21.67 53.1 21.34 76.2 21 100 C14.07 100 7.14 100 0 100 C0 67 0 34 0 0 Z " fill="#505050" transform="translate(2816,2192)"/>
<path d="M0 0 C8.25 0 16.5 0 25 0 C27.59694674 5.19389347 30.04714813 10.28757686 32.25 15.63671875 C32.54469681 16.34566284 32.83939362 17.05460693 33.14302063 17.78503418 C34.09814831 20.08470566 35.04916162 22.38605213 36 24.6875 C36.66928655 26.30193391 37.33880448 27.91627191 38.00854492 29.53051758 C39.36325027 32.79703017 40.71624981 36.06424137 42.06787109 39.33203125 C43.80706427 43.53598777 45.55286284 47.7371655 47.30078125 51.9375 C52.17584635 63.66375601 57.00619798 75.40746915 61.75 87.1875 C62.18094971 88.25186279 62.61189941 89.31622559 63.0559082 90.4128418 C63.44480225 91.38390869 63.83369629 92.35497559 64.234375 93.35546875 C64.57694336 94.20778076 64.91951172 95.06009277 65.27246094 95.93823242 C66 98 66 98 66 100 C57.75 100 49.5 100 41 100 C37.26725165 92.20270344 34.51482132 85.38273774 32 77 C19.13 77 6.26 77 -7 77 C-7.33 78.65 -7.66 80.3 -8 82 C-8.49232422 83.40487769 -9.0238344 84.79664387 -9.59375 86.171875 C-9.90183594 86.91824219 -10.20992187 87.66460938 -10.52734375 88.43359375 C-10.84832031 89.19800781 -11.16929688 89.96242188 -11.5 90.75 C-11.82097656 91.52988281 -12.14195313 92.30976563 -12.47265625 93.11328125 C-14.86221168 98.86221168 -14.86221168 98.86221168 -16 100 C-17.85369611 100.08737645 -19.71067541 100.10698153 -21.56640625 100.09765625 C-22.69111328 100.09443359 -23.81582031 100.09121094 -24.97460938 100.08789062 C-26.15861328 100.07951172 -27.34261719 100.07113281 -28.5625 100.0625 C-29.75037109 100.05798828 -30.93824219 100.05347656 -32.16210938 100.04882812 C-35.10812226 100.03699675 -38.05403681 100.02051287 -41 100 C-39.05549082 93.89553424 -36.83774876 87.98052861 -34.33203125 82.0859375 C-33.97986038 81.24933594 -33.62768951 80.41273438 -33.2648468 79.55078125 C-32.50909834 77.75599084 -31.75193431 75.96179594 -30.99346924 74.16815186 C-28.97151779 69.38596341 -26.96030381 64.59926622 -24.94921875 59.8125 C-24.53824951 58.83477631 -24.12728027 57.85705261 -23.70385742 56.84970093 C-18.76804715 45.09086592 -13.94302748 33.28679575 -9.12817383 21.47802734 C-8.81180466 20.70346191 -8.49543549 19.92889648 -8.16947937 19.13085938 C-7.58936375 17.71031549 -7.01038895 16.28930479 -6.43293762 14.86767578 C-4.38725365 9.85908637 -2.20043313 4.95097454 0 0 Z " fill="#4F4F4F" transform="translate(1605,2192)"/>
<path d="M0 0 C1.44301916 0.00560786 2.88604409 0.00987232 4.32907104 0.01286316 C8.09383417 0.02421853 11.85824004 0.05360308 15.62286377 0.0869751 C19.47769338 0.11787901 23.33258174 0.13141154 27.1875 0.14648438 C34.72674283 0.17848384 42.26561923 0.23117311 49.8046875 0.29296875 C49.8046875 6.23296875 49.8046875 12.17296875 49.8046875 18.29296875 C48.07387939 18.31278809 46.34307129 18.33260742 44.55981445 18.35302734 C38.83207714 18.42088276 33.10450573 18.4976645 27.37696552 18.58049583 C23.90540349 18.63037617 20.43387067 18.67670655 16.9621582 18.71484375 C12.96806934 18.75887656 8.97434369 18.81849367 4.98046875 18.87890625 C3.73759598 18.89045746 2.49472321 18.90200867 1.21418762 18.91390991 C0.05336166 18.9337796 -1.10746429 18.95364929 -2.3034668 18.97412109 C-3.83235786 18.9941066 -3.83235786 18.9941066 -5.39213562 19.01449585 C-8.3811919 19.31143436 -10.54405409 19.88222634 -13.1953125 21.29296875 C-14.11881977 24.06349056 -14.35860835 25.85985633 -14.3828125 28.73046875 C-14.40408203 29.87322266 -14.40408203 29.87322266 -14.42578125 31.0390625 C-14.14849671 33.75081128 -13.84265351 35.09500964 -12.1953125 37.29296875 C-6.75328423 40.15406083 -2.41728921 40.711766 3.66796875 40.6640625 C5.37695509 40.68144868 7.08593942 40.69903302 8.79492188 40.71679688 C11.45405889 40.7268369 14.11306166 40.73047141 16.7722168 40.72875977 C38.08535185 40.75841351 38.08535185 40.75841351 46.42578125 47.37109375 C54.44606826 56.9609423 55.80268476 64.98368659 55.01171875 77.36230469 C54.55826785 81.59094821 53.1874483 84.81427939 50.8046875 88.29296875 C50.07572266 89.36804687 50.07572266 89.36804687 49.33203125 90.46484375 C45.07544266 95.97928949 40.50898386 98.57307072 33.8046875 100.29296875 C28.51212018 100.80914211 23.26145767 100.76148496 17.953125 100.68359375 C16.44284826 100.67611763 14.93256171 100.67043119 13.42227173 100.66644287 C9.47984226 100.65129408 5.53801824 100.61210811 1.5958252 100.56762695 C-2.43993952 100.52643944 -6.47580368 100.50838215 -10.51171875 100.48828125 C-18.4065565 100.44560066 -26.30078904 100.37534198 -34.1953125 100.29296875 C-34.1953125 94.35296875 -34.1953125 88.41296875 -34.1953125 82.29296875 C-31.69783447 82.27109497 -31.69783447 82.27109497 -29.14990234 82.2487793 C-22.96609133 82.19075926 -16.78264302 82.1135255 -10.59912109 82.03051758 C-7.92395036 81.99564873 -5.24907612 81.96924994 -2.57373047 81.9465332 C1.27406538 81.91295608 5.12122239 81.86063596 8.96875 81.8046875 C10.16271393 81.79829758 11.35667786 81.79190765 12.58682251 81.7853241 C19.48540096 81.66348019 24.68952609 81.40813016 29.8046875 76.29296875 C30.52750828 71.5442043 30.4874458 67.50676128 28.1171875 63.29296875 C23.36293687 59.18118442 18.65156007 59.00166641 12.57421875 58.984375 C10.94986644 58.95919967 9.32551757 58.93380188 7.70117188 58.90820312 C5.16496806 58.87959657 2.62882425 58.8555554 0.0925293 58.83666992 C-23.75896632 58.62477047 -23.75896632 58.62477047 -31.66015625 51.171875 C-37.63245858 43.86226325 -39.65127932 35.82867688 -39.52734375 26.58984375 C-38.61617919 17.54251565 -34.67300463 10.87829732 -27.96484375 4.9140625 C-19.17842066 -0.22890729 -9.92055724 -0.11440871 0 0 Z " fill="#4E4E4E" transform="translate(2654.1953125,2191.70703125)"/>
<path d="M0 0 C1.37289968 0.00561228 2.74580548 0.00987463 4.11871338 0.01286316 C7.68946645 0.02418386 11.25983907 0.05353645 14.83044434 0.0869751 C18.49107724 0.11795582 22.1517731 0.1314276 25.8125 0.14648438 C32.96370997 0.17842215 40.11460222 0.23108124 47.265625 0.29296875 C47.265625 6.23296875 47.265625 12.17296875 47.265625 18.29296875 C44.72270752 18.3069873 44.72270752 18.3069873 42.12841797 18.32128906 C36.51235146 18.35688325 30.89665588 18.41072331 25.28086662 18.47687149 C21.87765517 18.51629551 18.47470046 18.54850829 15.07128906 18.56396484 C11.15396253 18.582077 7.23734741 18.63205093 3.3203125 18.68359375 C2.10447479 18.68482239 0.88863708 18.68605103 -0.36404419 18.68731689 C-8.86407996 18.80530381 -8.86407996 18.80530381 -15.734375 23.29296875 C-16.93628401 26.89869579 -17.06107815 29.50321225 -16.734375 33.29296875 C-14.75382845 36.85795255 -13.44438988 38.03992801 -9.59277344 39.41259766 C-5.52259346 40.34129096 -1.7098351 40.57217469 2.4375 40.56640625 C4.00521536 40.58670358 5.57292364 40.60755452 7.140625 40.62890625 C9.573629 40.65139785 12.00635024 40.66794633 14.43945312 40.67382812 C25.60928053 40.71919704 34.90879997 41.29052336 44.640625 47.41796875 C51.52513521 54.95814659 53.59754205 63.18438737 53.4765625 73.12890625 C52.93497692 81.25268997 50.31020979 88.64968419 44.265625 94.29296875 C37.88816803 98.28632966 32.21652196 100.42041958 24.68286133 100.40649414 C24.01918045 100.40664017 23.35549957 100.40678619 22.67170715 100.40693665 C20.48032348 100.40624057 18.28902505 100.39846245 16.09765625 100.390625 C14.57736762 100.38875974 13.05707839 100.38733634 11.53678894 100.38633728 C7.53698057 100.38252063 3.53720856 100.3726976 -0.46258545 100.3616333 C-4.54471342 100.35140088 -8.62684727 100.34683573 -12.70898438 100.34179688 C-20.71746645 100.33107458 -28.72591201 100.31348466 -36.734375 100.29296875 C-36.734375 94.35296875 -36.734375 88.41296875 -36.734375 82.29296875 C-35.03909668 82.27838623 -33.34381836 82.26380371 -31.59716797 82.2487793 C-25.98114371 82.19702695 -20.36538544 82.1317141 -14.74961662 82.05725384 C-11.34644843 82.01262298 -7.94339793 81.97335145 -4.54003906 81.9465332 C-0.62278933 81.91542646 3.29396076 81.86063983 7.2109375 81.8046875 C8.42677521 81.79829758 9.64261292 81.79190765 10.89529419 81.7853241 C19.03097354 81.72900792 19.03097354 81.72900792 26.265625 78.29296875 C28.7496703 74.5669008 28.78050786 71.60616779 28.265625 67.29296875 C27.43582792 64.38218631 27.43582792 64.38218631 25.265625 62.29296875 C19.62371444 59.77033413 15.05981955 58.86090517 8.92578125 58.88671875 C7.77619179 58.87046448 7.77619179 58.87046448 6.6033783 58.85388184 C4.17820676 58.81993638 1.75350163 58.80409766 -0.671875 58.79296875 C-25.03864969 58.6809152 -25.03864969 58.6809152 -34.0078125 50.265625 C-40.75984291 42.55120112 -41.62298532 33.20160392 -40.99951172 23.35693359 C-40.10980041 16.43094886 -36.36846227 10.23039907 -31.109375 5.73046875 C-21.66413734 -0.10296283 -10.76449934 -0.12878299 0 0 Z " fill="#4E4E4E" transform="translate(2289.734375,2191.70703125)"/>
<path d="M0 0 C2.11327171 0.01507396 4.22655383 0.02875756 6.33984375 0.04101562 C11.47682273 0.07380649 16.61329467 0.12543943 21.75 0.1875 C21.75 6.1275 21.75 12.0675 21.75 18.1875 C19.03910156 18.22488281 16.32820313 18.26226563 13.53515625 18.30078125 C10.88395525 18.34710929 8.23288916 18.39830173 5.58178711 18.44995117 C3.75179372 18.48302431 1.92170263 18.51110999 0.09155273 18.53393555 C-2.55266613 18.56780807 -5.19600379 18.62013641 -7.83984375 18.67578125 C-9.04978249 18.68536613 -9.04978249 18.68536613 -10.28416443 18.69514465 C-16.29182563 18.84757652 -23.08437991 19.51907807 -27.84580994 23.53266907 C-33.11691939 29.54292919 -33.3544476 34.12752843 -34.25 42.1875 C-15.77 42.1875 2.71 42.1875 21.75 42.1875 C21.75 47.7975 21.75 53.4075 21.75 59.1875 C3.27 59.1875 -15.21 59.1875 -34.25 59.1875 C-32.41162011 69.42453205 -32.41162011 69.42453205 -26.63671875 77.515625 C-26.07597656 77.81984375 -25.51523438 78.1240625 -24.9375 78.4375 C-24.10798828 78.90929688 -24.10798828 78.90929688 -23.26171875 79.390625 C-17.95707694 81.49188117 -12.19427319 81.38315216 -6.5703125 81.50390625 C-5.75754852 81.52468735 -4.94478455 81.54546844 -4.10739136 81.56687927 C-1.53000743 81.63187579 1.04747194 81.69102593 3.625 81.75 C5.38021791 81.79323277 7.13542643 81.83684852 8.890625 81.88085938 C13.17698727 81.988221 17.4634295 82.08766412 21.75 82.1875 C21.75 88.1275 21.75 94.0675 21.75 100.1875 C15.29455949 100.28724532 8.83957909 100.35937928 2.38354492 100.40722656 C0.1927101 100.42719742 -1.99807243 100.45438378 -4.1887207 100.48925781 C-33.81571537 100.94869581 -33.81571537 100.94869581 -44.546875 91.86328125 C-51.21700075 85.30024467 -54.34119598 78.02367826 -57.25 69.1875 C-57.62318359 68.07955078 -57.62318359 68.07955078 -58.00390625 66.94921875 C-62.27514978 51.56676826 -59.36351941 32.52281981 -51.84375 18.7734375 C-46.72271261 10.46430331 -39.94929353 4.28690369 -30.3984375 1.52734375 C-20.46293512 -0.82608179 -10.14194157 -0.12623835 0 0 Z " fill="#4E4E4E" transform="translate(2778.25,2191.8125)"/>
<path d="M0 0 C7.79100433 -0.0420504 15.58159268 -0.08210867 23.372612 -0.10350037 C27.00146895 -0.11401971 30.63023101 -0.12805496 34.2590332 -0.15087891 C37.76036571 -0.17276092 41.26160674 -0.18460067 44.7630024 -0.18975449 C46.73533778 -0.1951966 48.70763685 -0.21078449 50.67991638 -0.22659302 C60.44138667 -0.22780112 69.03240622 -0.16302499 76.3359375 6.98046875 C82.25787962 14.16742668 81.89581283 24.0330498 81.26318359 32.92578125 C80.47770538 39.11634053 78.22530371 44.87292702 73.69921875 49.19921875 C68.75505934 52.49771005 64.22553793 53.24990482 58.35205078 53.22705078 C56.40070724 53.22682419 56.40070724 53.22682419 54.40994263 53.22659302 C53.00506433 53.21638202 51.60018763 53.20595007 50.1953125 53.1953125 C48.74657385 53.19157846 47.29783266 53.18873333 45.84909058 53.18673706 C42.0514824 53.17913136 38.25402922 53.15950952 34.45648193 53.1373291 C29.89176639 53.11319045 25.32699877 53.10407508 20.76223755 53.09242249 C13.84138417 53.07308304 6.92087035 53.03473945 0 53 C0 35.51 0 18.02 0 0 Z " fill="#FBFDFE" transform="translate(2333,1899)"/>
<path d="M0 0 C0.94311035 0.00141495 1.8862207 0.0028299 2.85791016 0.00428772 C5.84280697 0.00984385 8.82762621 0.02238802 11.8125 0.03515625 C13.84765516 0.04017693 15.88281151 0.04473884 17.91796875 0.04882812 C22.88284197 0.05979888 27.84765787 0.07703286 32.8125 0.09765625 C32.8125 6.03765625 32.8125 11.97765625 32.8125 18.09765625 C30.10160156 18.13503906 27.39070313 18.17242188 24.59765625 18.2109375 C21.94645525 18.25726554 19.29538916 18.30845798 16.64428711 18.36010742 C14.81429372 18.39318056 12.98420263 18.42126624 11.15405273 18.4440918 C8.50983387 18.47796432 5.86649621 18.53029266 3.22265625 18.5859375 C2.01271751 18.59552238 2.01271751 18.59552238 0.77833557 18.6053009 C-5.75797811 18.77114622 -12.20349874 19.85093744 -17.52734375 23.859375 C-18.05457031 24.49488281 -18.58179688 25.13039063 -19.125 25.78515625 C-19.67027344 26.40777344 -20.21554687 27.03039063 -20.77734375 27.671875 C-24.46996622 34.02400396 -24.50277955 40.89248589 -24.4375 48.03515625 C-24.44523437 48.87755859 -24.45296875 49.71996094 -24.4609375 50.58789062 C-24.4432433 56.33408124 -23.68453852 61.55458645 -22.1875 67.09765625 C-21.83171875 68.42023437 -21.83171875 68.42023437 -21.46875 69.76953125 C-19.42173751 75.21458447 -16.86414748 77.63253921 -11.65136719 80.08056641 C-3.73098014 82.40621713 4.74663357 81.88703009 12.9375 81.91015625 C14.8672154 81.93332969 16.79690573 81.95870088 18.7265625 81.98632812 C23.42244527 82.05289347 28.11541865 82.07423472 32.8125 82.09765625 C32.8125 88.03765625 32.8125 93.97765625 32.8125 100.09765625 C25.78741762 100.22220765 18.76299247 100.31244388 11.73706055 100.37231445 C9.35218087 100.39729967 6.96737651 100.43129969 4.58276367 100.47485352 C-26.1799818 101.02223333 -26.1799818 101.02223333 -36.69921875 90.89453125 C-39.71160237 87.25753266 -41.99058384 83.26375946 -44.1875 79.09765625 C-45.05375 77.45796875 -45.05375 77.45796875 -45.9375 75.78515625 C-51.40338066 59.66080831 -51.36973454 38.18179869 -44.4375 22.5078125 C-38.90234643 11.83534451 -32.12741946 5.34149 -20.62109375 1.640625 C-13.75806487 0.10938742 -6.99679928 -0.040157 0 0 Z " fill="#4E4E4E" transform="translate(1721.1875,2191.90234375)"/>
<path d="M0 0 C8.05168994 -0.06306807 16.1024751 -0.12315461 24.15419769 -0.15525055 C27.90442065 -0.17103307 31.65443718 -0.19209196 35.40454102 -0.22631836 C39.02259402 -0.25912954 42.64044797 -0.27689836 46.25863838 -0.28463173 C47.63281954 -0.29013651 49.00699091 -0.30088513 50.38108635 -0.31719017 C60.69281816 -0.43458315 69.80462049 0.13875204 78 7 C81.90303528 12.57270669 82.62819618 16.71254195 82.5 23.4375 C82.52320312 24.64889648 82.52320312 24.64889648 82.546875 25.88476562 C82.50929906 31.71373368 81.29316582 36.15116243 78 41 C76.140625 42.8046875 76.140625 42.8046875 74.25 43.875 C73.63640625 44.24367188 73.0228125 44.61234375 72.390625 44.9921875 C64.23818083 48.4290022 56.38269747 48.26381996 47.65625 48.1953125 C46.27763068 48.19157576 44.89900868 48.18873191 43.52038574 48.18673706 C39.91679366 48.17915258 36.31336645 48.15954962 32.70983887 48.1373291 C29.02272816 48.11675803 25.33558966 48.10760131 21.6484375 48.09765625 C14.43214675 48.07736297 7.21630689 48.03820398 0 48 C0 32.16 0 16.32 0 0 Z " fill="#FCFDFE" transform="translate(2701,1899)"/>
<path d="M0 0 C28.38 0 56.76 0 86 0 C86 5.94 86 11.88 86 18 C75.11 18 64.22 18 53 18 C53 45.06 53 72.12 53 100 C46.07 100 39.14 100 32 100 C32 72.94 32 45.88 32 18 C21.44 18 10.88 18 0 18 C0 12.06 0 6.12 0 0 Z " fill="#4D4D4D" transform="translate(2348,2192)"/>
<path d="M0 0 C1.10794922 -0.0309375 1.10794922 -0.0309375 2.23828125 -0.0625 C9.33192111 -0.11254331 14.96970013 1.84217284 20.3984375 6.67578125 C28.18776484 15.74832147 27.40162222 29.76440341 26.92919922 41.02734375 C26.31665135 48.62494025 23.97864984 56.39635016 18.4921875 61.8828125 C11.25879235 67.55924367 3.73226645 68.19251342 -5.25 67.25 C-11.18866819 65.9250002 -16.14346815 63.32326884 -19.62890625 58.23828125 C-24.39756095 50.23617977 -24.43131911 42.48562586 -24.4375 33.375 C-24.44974609 32.43269531 -24.46199219 31.49039063 -24.47460938 30.51953125 C-24.49418691 21.08316137 -23.42748705 12.71024393 -17.25 5.25 C-11.53771979 0.79442144 -7.07067606 0.0483465 0 0 Z " fill="#FDFDFD" transform="translate(2188.25,2208.75)"/>
<path d="M0 0 C33.88461538 0 33.88461538 0 40.375 6.25 C46.22085686 13.92572341 47.18016684 21.87821682 47.1875 31.25 C47.19974609 32.05824219 47.21199219 32.86648437 47.22460938 33.69921875 C47.24512588 42.24776209 45.95872728 50.8301681 41 58 C29.50425411 67.70751875 14.23504409 64 0 64 C0 42.88 0 21.76 0 0 Z " fill="#FEFEFE" transform="translate(2946,2210)"/>
<path d="M0 0 C1.16781006 0.00523682 2.33562012 0.01047363 3.53881836 0.01586914 C4.79887695 0.0190918 6.05893555 0.02231445 7.35717773 0.02563477 C8.6976732 0.03399136 10.03816799 0.04245632 11.37866211 0.05102539 C12.72306153 0.05603879 14.06746271 0.06060197 15.41186523 0.06469727 C18.71334151 0.07653051 22.01473014 0.09301568 25.31616211 0.11352539 C23.58581259 3.10092293 21.85211968 5.83827005 19.56616211 8.42602539 C19.04586426 9.0197998 18.52556641 9.61357422 17.98950195 10.2253418 C17.16119873 11.15999268 17.16119873 11.15999268 16.31616211 12.11352539 C15.14105091 13.45411747 13.96658223 14.795273 12.79272461 16.13696289 C12.20652344 16.80566406 11.62032227 17.47436523 11.01635742 18.16333008 C8.09291136 21.51664529 5.22382519 24.91519939 2.36132812 28.32055664 C0.01435672 31.11159623 -2.34865109 33.88589039 -4.74243164 36.63696289 C-5.24500488 37.21881348 -5.74757813 37.80066406 -6.26538086 38.40014648 C-7.2239926 39.50920306 -8.18755939 40.61400405 -9.15698242 41.71362305 C-11.71985855 44.69235849 -13.46551882 47.36908712 -14.68383789 51.11352539 C-14.1127832 51.78254883 -13.54172852 52.45157227 -12.95336914 53.14086914 C-7.34141412 59.7877793 -1.98613817 66.58450863 3.26147461 73.5222168 C7.75927261 79.44546669 12.41847746 85.22254473 17.17871094 90.93676758 C17.69199951 91.55841797 18.20528809 92.18006836 18.73413086 92.82055664 C19.41125122 93.63230347 19.41125122 93.63230347 20.10205078 94.46044922 C21.42241855 96.25819911 22.37312422 98.09594592 23.31616211 100.11352539 C-2.91349626 102.35730564 -2.91349626 102.35730564 -8.34790039 97.81665039 C-10.46353872 94.97221358 -12.10303845 92.28774513 -13.64233398 89.11547852 C-15.54205516 85.46388131 -18.07387472 82.24310233 -20.49633789 78.92602539 C-21.50178912 77.49442699 -22.50434916 76.06079409 -23.50415039 74.62524414 C-25.73874533 71.43788767 -28.00778099 68.27847896 -30.30102539 65.13305664 C-30.89681396 64.31538818 -31.49260254 63.49771973 -32.10644531 62.65527344 C-33.26235513 61.0724333 -34.42126356 59.49177761 -35.58349609 57.91357422 C-36.10516357 57.19838623 -36.62683105 56.48319824 -37.16430664 55.74633789 C-37.62732178 55.11614746 -38.09033691 54.48595703 -38.56738281 53.83666992 C-39.68383789 52.11352539 -39.68383789 52.11352539 -40.68383789 49.11352539 C-39.05102539 46.57446289 -39.05102539 46.57446289 -36.55883789 43.48852539 C-35.6232201 42.31331855 -34.68836124 41.13750722 -33.75415039 39.96118164 C-33.25302734 39.33614746 -32.7519043 38.71111328 -32.2355957 38.06713867 C-29.58249138 34.72696548 -27.01432016 31.32238966 -24.43383789 27.92602539 C-19.6295433 21.63258743 -14.79231286 15.36522114 -9.93383789 9.11352539 C-9.32507812 8.32953369 -8.71631836 7.54554199 -8.08911133 6.73779297 C-7.52740234 6.01615967 -6.96569336 5.29452637 -6.38696289 4.55102539 C-5.88841797 3.91036133 -5.38987305 3.26969727 -4.8762207 2.60961914 C-2.89392304 0.12241192 -2.89392304 0.12241192 0 0 Z " fill="#4E4E4E" transform="translate(1830.683837890625,2191.886474609375)"/>
<path d="M0 0 C6.93 0 13.86 0 21 0 C21 33 21 66 21 100 C14.07 100 7.14 100 0 100 C0 67 0 34 0 0 Z " fill="#4C4C4C" transform="translate(1768,2192)"/>
<path d="M0 0 C2.13441633 2.13441633 2.78123625 3.57703892 3.8918457 6.35107422 C4.43800285 7.70421219 4.43800285 7.70421219 4.99519348 9.08468628 C5.38478745 10.06478668 5.77438141 11.04488708 6.17578125 12.0546875 C6.58281784 13.06661163 6.98985443 14.07853577 7.40922546 15.12112427 C8.71513858 18.37050525 10.01401071 21.62264615 11.3125 24.875 C12.59934748 28.08500306 13.88762945 31.29442709 15.17623901 34.50372314 C16.00341308 36.5647795 16.8295393 38.62625673 17.65457153 40.68817139 C20.11577032 46.8325712 22.62428208 52.95026141 25.24682617 59.02783203 C26 61 26 61 26 63 C9.17 63 -7.66 63 -25 63 C-24.237509 59.18754498 -23.43599308 56.2891054 -22.00634766 52.75415039 C-21.59567047 51.73281509 -21.18499329 50.7114798 -20.76187134 49.65919495 C-20.09470596 48.01998329 -20.09470596 48.01998329 -19.4140625 46.34765625 C-18.72768204 44.64832191 -18.72768204 44.64832191 -18.0274353 42.91465759 C-17.05943847 40.52079249 -16.08930321 38.12779115 -15.1171875 35.7355957 C-13.63279296 32.08168277 -12.15570507 28.42488184 -10.6796875 24.76757812 C-9.73741151 22.4399291 -8.794717 20.11244945 -7.8515625 17.78515625 C-7.41083405 16.69437271 -6.97010559 15.60358917 -6.51602173 14.47975159 C-4.51060789 9.55262342 -2.48737973 4.70430385 0 0 Z " fill="#F9FCFD" transform="translate(1956,1912)"/>
<path d="M0 0 C0.66 0 1.32 0 2 0 C19.70996094 44.27490234 19.70996094 44.27490234 20.86608887 47.17694092 C21.62854792 49.07520869 22.40194774 50.96911492 23.18566895 52.85870361 C23.55268921 53.74918396 23.91970947 54.63966431 24.29785156 55.55712891 C24.79022308 56.73585068 24.79022308 56.73585068 25.2925415 57.93838501 C26 60 26 60 26 63 C9.17 63 -7.66 63 -25 63 C-23.5975 59.49375 -22.195 55.9875 -20.75 52.375 C-20.27264404 51.18124756 -19.79528809 49.98749512 -19.3034668 48.75756836 C-17.0658277 43.16199041 -14.82694915 37.56691936 -12.584198 31.97338867 C-11.50631271 29.28487345 -10.42909486 26.59609102 -9.35192871 23.9072876 C-8.83002775 22.60503695 -8.30781627 21.30291071 -7.78527832 20.00091553 C-5.11970495 13.35879251 -2.47353322 6.71627156 0 0 Z " fill="#F9FCFD" transform="translate(2544,1912)"/>
<path d="M0 0 C4.79613059 2.95371457 8.86089732 7.94365522 10.921875 13.18359375 C11.70778403 19.58052774 11.63080453 25.7662022 8.33203125 31.4296875 C4.47838169 36.22273086 -0.51168369 39.76054741 -6.6796875 40.4921875 C-13.37894362 40.7778147 -17.81410465 40.19242151 -23.1640625 36 C-28.49398454 30.94201275 -30.36634392 27.0048164 -30.578125 19.55859375 C-30.30335247 13.12743141 -29.02920216 9.45985044 -24.828125 4.55859375 C-17.05928529 -2.15085872 -9.69831351 -4.05389505 0 0 Z " fill="#4E4E4E" transform="translate(2532.078125,2221.81640625)"/>
<path d="M0 0 C5.1375817 2.94318952 8.58664718 7.00503501 11.125 12.3125 C12.64443265 19.90966327 12.07561848 25.31268467 8.31640625 32.19921875 C5.34245371 36.44878186 1.68202542 38.79349153 -3.25 40.4375 C-10.24864046 41.16328494 -15.84287125 41.12765707 -21.6328125 36.86328125 C-26.26719221 32.77741508 -28.82925077 28.56075389 -29.65625 22.421875 C-29.85845211 15.44590229 -29.31017829 10.83462687 -24.97265625 5.24609375 C-18.34225998 -1.71507059 -8.95040637 -4.03544333 0 0 Z " fill="#4E4E4E" transform="translate(1953.25,2221.5625)"/>
<path d="M0 0 C5.0176117 -0.0690497 10.03356045 -0.12872743 15.05126953 -0.16479492 C16.75640463 -0.17983738 18.46150132 -0.20027653 20.16650391 -0.22631836 C22.62412012 -0.26290284 25.08122269 -0.27977173 27.5390625 -0.29296875 C28.29555084 -0.30845261 29.05203918 -0.32393646 29.83145142 -0.33988953 C34.61554604 -0.34139453 37.85230063 0.36279556 42 3 C45.40453787 7.76635301 45.69679982 12.34923983 45 18 C44.097325 22.03054884 43.29428614 24.98907185 39.96484375 27.58959961 C36.08977544 29.43300126 32.61469666 29.37590377 28.41796875 29.29296875 C27.60378983 29.28872391 26.7896109 29.28447906 25.95075989 29.28010559 C23.36266332 29.26337753 20.77535929 29.22573712 18.1875 29.1875 C16.42774566 29.17244553 14.66797905 29.15875846 12.90820312 29.14648438 C8.60492136 29.11605098 4.3033427 29.05732129 0 29 C0 19.43 0 9.86 0 0 Z " fill="#FCFCFC" transform="translate(2063,2210)"/>
<path d="M0 0 C5.03591769 -0.06898517 10.07018692 -0.12868238 15.10620117 -0.16479492 C16.81817184 -0.1798534 18.53010411 -0.20030455 20.24194336 -0.22631836 C22.70696505 -0.2628319 25.17147535 -0.27975562 27.63671875 -0.29296875 C28.77919319 -0.31619453 28.77919319 -0.31619453 29.94474792 -0.33988953 C34.50659087 -0.34132446 37.37159693 0.1923817 41 3 C44.95510365 7.38268242 45.56790544 10.90287086 45.328125 16.59765625 C44.69379969 21.24182368 42.68430718 25.08325682 39 28 C35.24151826 29.25282725 31.74509081 29.12381835 27.83203125 29.09765625 C26.63981209 29.09553383 26.63981209 29.09553383 25.42350769 29.09336853 C22.88646675 29.08777378 20.34951425 29.07522228 17.8125 29.0625 C16.09179815 29.05748432 14.37109492 29.05292153 12.65039062 29.04882812 C8.43353231 29.03865722 4.21686509 29.01908084 0 29 C0 19.43 0 9.86 0 0 Z " fill="#FBFBFB" transform="translate(1501,2210)"/>
<path d="M0 0 C3.06367157 2.5754393 4.20882634 5.42293373 5.69921875 9.09375 C6.42915039 10.88619141 6.42915039 10.88619141 7.17382812 12.71484375 C7.42205322 13.33601074 7.67027832 13.95717773 7.92602539 14.59716797 C8.6864035 16.49725997 9.46039241 18.39137203 10.23632812 20.28515625 C14 29.60137475 14 29.60137475 14 33 C5.09 33 -3.82 33 -13 33 C-9.62356208 22.87068624 -9.62356208 22.87068624 -7.7734375 18.37890625 C-7.3815625 17.42435547 -6.9896875 16.46980469 -6.5859375 15.48632812 C-6.18632813 14.52146484 -5.78671875 13.55660156 -5.375 12.5625 C-4.96765625 11.57056641 -4.5603125 10.57863281 -4.140625 9.55664062 C-1.16635497 2.33270994 -1.16635497 2.33270994 0 0 Z " fill="#FBFBFB" transform="translate(1617,2218)"/>
</svg>
